<svg height="602" viewBox="0 0 602 602" width="602" xmlns="http://www.w3.org/2000/svg"><g fill="none" fill-rule="evenodd" transform="translate(1 1)"><path d="m0 0h600v600h-600z" fill-rule="nonzero" stroke="#979797" stroke-opacity=".01" transform="matrix(1 0 0 -1 0 600)"/><g transform="translate(75.199457 5.656445)"><g fill="#fff" fill-rule="nonzero" transform="translate(.400543 74.743555)"><path d="m202.53991 13.8777808-1.748135.1514105-.806831-9.26968608-3.042427.26917419-.117663-1.31222416c2.101124-.31964435 2.958382-.60564193 3.294562-2.7926822l1.285887-.10935201z"/><path d="m213.524584 6.50072574c.294158 3.27214872-.386606 5.31619016-2.269213 5.47601236-1.874202.1682339-2.899551-1.7243971-3.185304-4.99654584-.285752-3.27214871.395012-5.31619019 2.269214-5.48442406 1.874202-.15141048 2.907955 1.74122052 3.185303 5.00495754zm1.748135-.15141048c-.235326-2.70856526-1.311101-6.64523774-5.059506-6.3171817-3.748404.32805604-4.126606 4.38249223-3.882876 7.09946918.235326 2.71697696 1.311101 6.64523776 5.059506 6.30877006 3.748404-.3196444 4.126606-4.37408059 3.882876-7.09105754z"/><path d="m234.79636 4.43144918c.378202-4.26472853 3.513078-4.41613901 4.916629-4.28996361 2.269213.19346895 3.958517 1.82533746 3.748404 4.25631684-.201708 2.33845075-1.83218 3.18803178-3.866067 4.06284788l-1.42036.62246531c-1.865797.83275764-2.344854 1.8169258-2.462517 2.3132157l7.093394.6224653-.134472 1.5477516-8.933978-.7822875c.327776-2.7085653 1.680899-4.04602453 3.521483-4.92084063l1.815371-.84958103c1.462382-.68134716 2.50454-1.12716691 2.65582-2.84315235.09245-1.04304998-.462247-2.41415599-2.370067-2.58238986-2.470921-.21870403-2.781888 2.07768826-2.91636 2.98615114z"/><path d="m252.025573 7.98118377c-.285753 3.26373703-1.311101 5.16477973-3.185303 4.99654583-1.874203-.1682338-2.554967-2.2038636-2.277618-5.48442404.285752-3.27214871 1.311101-5.17319141 3.193708-5.00495754 1.865797.16823386 2.554966 2.21227535 2.269213 5.49283575zm1.748135.14299879c.235326-2.70856526-.142877-6.77141315-3.891281-7.09946919-3.748405-.32805604-4.82418 3.60020476-5.059506 6.31718171-.24373 2.71697692.134472 6.77141312 3.882877 7.09105752 3.748404.3364677 4.832584-3.5917931 5.06791-6.30877004z"/><path d="m275.045483 11.2028623c.260539.084117.546292.1850573.815236.2607625 1.227056.3280561 2.546562.1598222 2.966787-1.4299879.201707-.75705235.084045-2.11974667-1.806967-2.62444828-2.252404-.60564192-2.882741 1.19446046-3.193708 2.05245318l-1.546427-.41217297c.495866-1.85898423 1.865798-3.93667249 5.193978-3.04503299 2.454112.65611208 3.529888 2.45621445 3.017214 4.38249226-.437034 1.6234568-1.580045 2.1449818-2.319641 2.1786285l-.008404.0336468c1.117797.7318173 1.773348 1.8253375 1.319505 3.5160878-.554696 2.0776883-2.420494 3.7095568-5.64782 2.8515641-.932899-.2523508-1.66409-.6981706-2.193573-1.1860488-1.201843-1.1187552-1.193438-2.6749185-.91609-4.1637882l1.638876.4374081c-.268943 1.2028721-.403415 2.8852108 1.949843 3.5160878 1.622068.437408 3.017214-.2523508 3.412225-1.7075738.563101-2.1281584-1.25227-2.8347406-2.328045-3.1207382-.235326-.0588818-.487461-.109352-.722787-.1766456z"/><path d="m288.39182 15.8965872c-.848854 3.1712084-2.185168 4.8619588-4.008944 4.3740806-1.823775-.4878783-2.134741-2.6244484-1.285887-5.7872451.848854-3.1712084 2.185168-4.86195872 4.008944-4.3740805 1.81537.4878782 2.134741 2.6076249 1.285887 5.787245zm1.689304.4542315c.705977-2.6328601 1.042157-6.69570795-2.596989-7.67146438s-5.370472 2.71697698-6.07645 5.34142528c-.705977 2.63286-1.042157 6.6872962 2.596989 7.6630526 3.639146.9757565 5.370472-2.7001535 6.07645-5.3330135z"/><path d="m313.874247 21.1286605.033618.0168234-2.504539 5.3918954-3.824045-1.783279zm.151281 8.1929893.605124-1.2869891-1.739731-.8075225 3.588719-7.7051112-1.23546-.5804068-8.950787 4.9965459-.672359 1.4552229 5.185573 2.414156-1.344719 2.8936225 1.487595.6897589 1.344719-2.8936226z"/><path d="m323.110787 30.0450554c-1.386742 2.9777395-3.000405 4.4077273-4.706517 3.6086165-1.706113-.7991109-1.647281-2.9525044-.26054-5.9302438 1.386742-2.9777395 3.000405-4.3993157 4.706517-3.6086165 1.706113.7991109 1.647281 2.9525044.26054 5.9302438zm1.588449.740229c1.151416-2.4646261 2.185168-6.4097103-1.227056-7.9995203-3.412225-1.5982218-5.765483 1.7328088-6.916899 4.2058466-1.151416 2.4646262-2.185169 6.4097104 1.227056 7.9995204 3.412225 1.5898101 5.765483-1.7328088 6.916899-4.2058467z"/><path d="m343.458067 40.3914382c.697573-.025235 1.580045.1093521 2.546562.7906992 1.739731 1.2196956 2.672629 3.6927334 1.126202 5.9050087-.840449 1.1944605-3.176898 3.3983242-6.538696 1.04305-1.403551-.9841681-2.815506-2.8095056-1.395146-5.3918954l1.386741.9757564c-.731191 1.345871-.193303 2.5571548 1.016944 3.3983241 1.395146.9757565 3.042427.4626432 3.98373-.8832278 1.075776-1.5393399.613529-3.1207382-.722786-4.0544362-.773214-.54676-1.73973-.6645237-2.697843-.3617028l-1.117797-.8748161 4.840988-5.1900148 5.555371 3.894614-.91609 1.3122242-4.546831-3.1880318z"/><path d="m355.46809 50.3424715c-1.882607 2.6917418-3.714787 3.8189088-5.261214 2.7338003-1.538022-1.0766967-1.109393-3.1880318.764809-5.8797736 1.882607-2.6917419 3.714787-3.8189088 5.261214-2.7338004 1.554831 1.0851085 1.126202 3.1880318-.764809 5.8797737zm1.437168 1.0094032c1.563236-2.2375105 3.269349-5.9386555.184899-8.092049-3.084449-2.1618052-5.975595.7065822-7.538831 2.935681-1.563236 2.2375104-3.260944 5.9302438-.176495 8.092049 3.08445 2.1618051 5.967191-.7065823 7.530427-2.935681z"/><path d="m370.739056 66.2237485c1.092584-1.0935201 2.639011-1.3963411 3.916495-.1177637 1.437168 1.4383996.731191 3.0113862-.075641 3.8273205-1.260674 1.2533423-2.840719 1.4131645-3.941708.3028209-1.361528-1.3626943-.882472-3.0197979.100854-4.0123777zm8.723865.824346c1.773349-2.0103947.823641-4.1049064-.235325-5.1731914-2.773484-2.7674472-6.353798-.5047016-8.387686 1.5309281-1.210247 1.2112839-2.185168 2.5066847-2.496135 3.9282608-.369797 1.6907504.327776 3.0197979 1.042158 3.7347919 1.302696 1.3038125 2.210382 1.4972814 3.244134 1.4468112 1.319506-.0504701 2.252405-.4878782 3.202113-1.4383995 2.218786-2.2122754 1.168224-4.7105483.042022-5.8377152-1.269078-1.261754-2.546562-1.2785774-3.336584-1.0682851v-.0504701c.974921-.9757565 3.807236-3.0534447 5.631011-1.2281073 1.000135 1.0009916.84045 2.0608649.16809 3.019798z"/><path d="m383.471865 75.6448451c-2.31964 2.3216273-4.31991 3.1123265-5.656225 1.783279-1.32791-1.3374593-.537887-3.3394423 1.781753-5.6610697 2.319641-2.3216273 4.328315-3.1123265 5.656225-1.783279 1.319506 1.3290476.537888 3.3394423-1.781753 5.6610697zm1.235461 1.2365189c1.924629-1.9262778 4.24427-5.2741317 1.580045-7.9406385s-6.009214-.3448795-7.933843 1.5813983-4.235865 5.2657201-1.57164 7.9406385c2.664224 2.6665068 6.000809.3448795 7.925438-1.5813983z"/><path d="m401.75164 87.1688649 5.193978 7.4275253-1.176629.8243459c-1.865798-.2859975-7.076585-.4542314-12.421843 2.1281584l-1.042157-1.4888697c3.210517-1.699162 8.421303-2.4478027 12.262157-2.0608649l-4.135011-5.9134204z"/><path d="m406.567416 105.296064c-2.689438 1.884219-4.798967 2.313216-5.874742.773876-1.08418-1.547752.042023-3.381501 2.731461-5.26572 2.689438-1.8842194 4.790562-2.3216275 5.874741-.773876 1.075776 1.53934-.042022 3.381501-2.73146 5.26572zm1.008539 1.429988c2.227191-1.564575 5.084719-4.458197 2.933169-7.5452889-2.159955-3.0870915-5.857933-1.3795178-8.085124.1766455-2.227191 1.5645754-5.093124 4.4581974-2.933169 7.5452894 2.151551 3.087091 5.849529 1.387929 8.085124-.176646z"/><path d="m418.224449 126.241181c.621933 1.354282.437034 2.801093-1.168224 3.549734-1.857394.866405-2.857528-.252351-3.361798-1.329047-.958112-2.060865.235326-3.196444 1.185034-3.642264 1.100988-.521525 2.56337-.25235 3.344988 1.421577zm4.933439 2.119746c1.386741-.6477 2.580179-2.456214 1.344719-5.097486-1.32791-2.843152-3.706382-2.649683-4.941843-2.077688-1.109393.513113-1.647281 1.48887-1.563236 2.68333-1.092584-1.009403-2.370067-1.337459-3.824045-.664524-.571505.269174-1.865798.866405-2.260809 2.53192-.302562 1.295401.117663 2.624448.428629 3.28056 1.311101 2.809506 3.714787 3.162797 5.622607 2.279569.899281-.420584 2.059101-1.379517 1.983461-3.288972.521078.39535 1.512809 1.152402 3.210517.353291zm-3.66436-2.7338c-.50427-1.076697-.268944-2.405744.857259-2.935681.764809-.353291 2.033887-.479467 2.781887 1.110343.815236 1.749633-.008404 2.708566-.739595 3.045033-1.075776.504702-2.302832.058882-2.899551-1.219695z"/><path d="m423.973124 138.042786c-2.975191 1.38793-5.126742 1.446812-5.925169-.260762s.630337-3.314207 3.605528-4.710548c2.975191-1.38793 5.118337-1.446812 5.916764.260762.798427 1.715985-.630337 3.331031-3.597123 4.710548zm.739595 1.598222c2.470921-1.152402 5.782292-3.507676 4.202247-6.922824-1.596854-3.415147-5.530157-2.380509-8.001078-1.228107-2.470922 1.152402-5.790697 3.507676-4.193843 6.922824 1.588449 3.415147 5.521753 2.372097 7.992674 1.228107z"/><path d="m432.133888 162.722695c-.285753-1.068285-.386607-2.658095 2.042292-3.305796 1.697708-.454231 3.109663.210292 3.504674 1.682339.487461 1.816926-.57991 2.902034-2.017079 3.28056-2.496135.672936-3.302966-.832757-3.529887-1.657103zm-1.479191.142998c.310966 1.169226 1.185033 2.287981 2.286022 2.489862l-.033618.05047c-3.378607.487878-5.084719-.042059-5.546966-1.774868-.344584-1.2954.24373-2.271157 1.496-2.700153l-.428629-1.58981c-1.227057.328056-3.168495 1.699162-2.370068 4.676901 1.168225 4.357258 7.009349 3.045033 8.354068 2.683331 2.050696-.546761 5.765483-1.976748 4.681303-6.014361-.714382-2.666507-3.126472-3.5245-5.429303-2.910446-2.512944.689759-3.639146 2.750624-3.008809 5.089074z"/><path d="m436.041978 175.289764c-3.168495.849581-5.303236.538349-5.790697-1.286989-.487461-1.816925 1.201843-3.162796 4.370337-4.012377s5.303236-.529937 5.790697 1.286989c.48746 1.816925-1.201843 3.154385-4.370337 4.012377zm.453842 1.690751c2.630607-.706582 6.311776-2.447803 5.336854-6.081654-.974921-3.642264-5.034292-3.305796-7.664899-2.599214-2.630606.706583-6.303371 2.447803-5.328449 6.081655.974921 3.642263 5.025887 3.305795 7.656494 2.599213z"/><path d="m433.42818 195.999353-.151281-1.749632 9.261753-.815934-.268944-3.045033 1.302696-.117764c.327776 2.102924.613529 2.960916 2.790293 3.288972l.117663 1.286989z"/><path d="m440.782112 207.001848c-3.269348.285998-5.31164-.395349-5.47973-2.271157-.159685-1.875807 1.731326-2.902034 5.000674-3.188032 3.269348-.285997 5.311641.39535 5.479731 2.271158.168089 1.875807-1.731326 2.902034-5.000675 3.188031zm.159686 1.749633c2.706247-.235528 6.63955-1.312225 6.311775-5.06384-.327775-3.760027-4.387146-4.130141-7.101798-3.886202-2.714651.235527-6.631146 1.312224-6.303371 5.063839.327776 3.751616 4.378742 4.12173 7.093394 3.886203z"/><path d="m441.689798 217.331408c-3.269349.285997-5.311641-.39535-5.479731-2.271157-.159685-1.875808 1.731326-2.902035 5.000675-3.188032 3.269348-.285998 5.31164.395349 5.47973 2.271157.159685 1.875808-1.731326 2.902034-5.000674 3.188032zm.151281 1.749632c2.706247-.235527 6.63955-1.312224 6.311775-5.063839-.327775-3.751616-4.387146-4.130142-7.093393-3.894614-2.714652.235527-6.639551 1.312224-6.311776 5.063839.33618 3.760027 4.387146 4.138553 7.093394 3.894614z"/><path d="m434.571191 233.910855.151281-1.749632 9.270157.815934.268944-3.045033 1.302697.109352c-.042023 2.136571.084045 3.019798 2.176764 3.726381l-.109259 1.286989z"/><path d="m433.67191 244.248827.151281-1.749633 9.270157.815935.26054-3.045033 1.302696.109352c-.042022 2.13657.084045 3.019798 2.176764 3.72638l-.109258 1.278577z"/><path d="m439.00036 256.361665c-3.260944-.285998-5.151956-1.320636-4.99227-3.188032.159685-1.875807 2.210382-2.557155 5.47973-2.279569 3.269349.285998 5.16036 1.312224 5.000674 3.188032-.16809 1.884219-2.210382 2.565567-5.488134 2.279569zm-.142877 1.749632c2.714652.235528 6.765618-.142999 7.093393-3.903026.327776-3.751615-3.605528-4.828312-6.311775-5.063839-2.714652-.243939-6.765618.142999-7.093393 3.894614s3.597123 4.836724 6.311775 5.072251z"/><path d="m429.906697 269.021263.453842-1.69075 8.984405 2.405744.790022-2.952504 1.269079.336468c-.41182 2.0861-.437034 2.986151 1.496 4.054436l-.327775 1.236519z"/><path d="m436.865618 275.540326c4.126607 1.101932 3.731595 4.22267 3.361798 5.593776-.588315 2.195452-2.487731 3.583381-4.840989 2.952504-2.260809-.605642-2.82391-2.355274-3.319775-4.525491l-.369798-1.505693c-.495865-1.98516-1.378337-2.63286-1.848989-2.834741l-1.840584 6.880766-1.496-.39535 2.31964-8.664044c2.605394.790699 3.697978 2.363686 4.235866 4.315199l.529483 1.943101c.41182 1.556163.672359 2.666507 2.328045 3.112326 1.008539.269174 2.462516-.033647 2.958382-1.892631.638741-2.397332-1.563236-3.103915-2.428899-3.389912z"/><path d="m430.385753 291.901069c-3.168495-.849581-4.857798-2.195452-4.370337-4.012377.48746-1.825338 2.613797-2.13657 5.790696-1.286989s4.857798 2.18704 4.370337 4.012377c-.48746 1.816926-2.622202 2.13657-5.790696 1.286989zm-.453843 1.690751c2.630607.706582 6.689978 1.034638 7.664899-2.607625s-2.706247-5.375072-5.336854-6.081655c-2.639011-.69817-6.681573-1.043049-7.664899 2.607625-.974921 3.633852 2.706247 5.375072 5.336854 6.081655z"/><path d="m418.837978 304.8719.748-1.58981 8.421303 3.936673 1.294292-2.775859 1.185034.555172c-.764809 1.993571-.949708 2.876799.773213 4.247905l-.537887 1.169225z"/><path d="m422.28382 315.15099c-.134472.243939-.277348.504701-.395011.757052-.529483 1.14399-.596719 2.48145.890876 3.171209.705978.328056 2.067506.454231 2.899551-1.320636.99173-2.111335-.680764-3.053445-1.470787-3.499265l.680764-1.455223c1.739731.815935 3.555102 2.523508 2.101124 5.652658-1.075775 2.304804-3.025618 3.053445-4.832584 2.212276-1.521214-.706583-1.840584-1.926278-1.739731-2.666507l-.033618-.016824c-.907685.975757-2.101123 1.429988-3.689573.689759-1.941438-.908463-3.23573-3.028209-1.823775-6.056419.41182-.874816.974922-1.522516 1.546427-1.951513 1.311101-.99258 2.840719-.714994 4.261079-.176645l-.714382 1.53934c-1.134607-.471055-2.765079-.89164-3.798832 1.312224-.705977 1.522516-.277348 3.019798 1.092585 3.659086 1.991865.933698 3.000404-.731817 3.471056-1.749632.100854-.218704.193303-.462643.302562-.681347z"/><path d="m415.341708 327.490944c-2.975191-1.38793-4.403955-3.002975-3.605528-4.702137.798427-1.707573 2.949977-1.648692 5.925168-.260762 2.975191 1.387929 4.403955 3.002974 3.605528 4.710548-.798427 1.699162-2.958382 1.64028-5.925168.252351zm-.739596 1.58981c2.462517 1.152402 6.404225 2.18704 7.992675-1.236519 1.596853-3.415147-1.731326-5.76201-4.202248-6.914412-2.470921-1.152402-6.404224-2.18704-7.992674 1.228107-1.588449 3.415148 1.731326 5.770422 4.202247 6.922824z"/><path d="m402.415596 335.902637 1.008539-1.438399 7.614472 5.341425 1.756539-2.506685 1.075775.748641c-1.100988 1.825338-1.428764 2.666507.025214 4.32361l-.739596 1.051462z"/><path d="m405.424404 350.017459-.016808.033646-4.874607-3.415147 2.420494-3.448794zm-8.093528-1.278578 1.159821.807523 1.100988-1.572987 6.958922 4.878782.781618-1.118755-3.361798-9.690271-1.319506-.925286-3.277752 4.693725-2.613798-1.833749-.941304 1.345871 2.613798 1.833749z"/><path d="m395.044854 357.571159c-2.689438-1.884219-3.815641-3.717968-2.731461-5.26572 1.08418-1.53934 3.193708-1.110343 5.883146.773876 2.689439 1.884219 3.807236 3.717969 2.731461 5.26572-1.08418 1.530928-3.193708 1.101932-5.883146-.773876zm-1.008539 1.429988c2.235595 1.564575 5.925168 3.272149 8.085123.185057 2.159955-3.087091-.705977-5.980714-2.933168-7.545288-2.235596-1.564575-5.925169-3.263738-8.085124-.176646-2.15155 3.087091.705978 5.972302 2.933169 7.536877z"/><path d="m379.588989 366.294085 1.23546-1.24493 6.58072 6.586356 2.159955-2.170217.924494.925286c-1.403551 1.606633-1.874202 2.380509-.731191 4.256317l-.907685.908463z"/><path d="m380.454652 376.228295c-.100854.698171-.378203 1.547752-1.218652 2.372098-1.504404 1.505693-4.101393 1.985159-6.009213.084117-1.033753-1.034639-2.798697-3.717969.100853-6.628415 1.210248-1.211284 3.25254-2.279569 5.546967-.437408l-1.201843 1.202872c-1.201843-.958933-2.479326-.630877-3.521483.412173-1.193438 1.202872-.983326 2.918858.176494 4.079672 1.32791 1.329047 2.966787 1.14399 4.109798 0 .67236-.672936.958112-1.598222.832045-2.599214l1.050562-.950521 4.269483 5.669481-4.798966 4.803077-1.134607-1.135578 3.924899-3.928261z"/><path d="m368.570697 386.347562c-2.319641-2.321627-3.109663-4.332022-1.781753-5.661069 1.336314-1.329048 3.336584-.54676 5.656225 1.783279 2.31964 2.321627 3.109662 4.332022 1.781752 5.661069-1.32791 1.329048-3.328179.538349-5.656224-1.783279zm-1.235461 1.236519c1.924629 1.926278 5.269618 4.239494 7.933843 1.581399 2.664224-2.658096.344584-6.00595-1.580045-7.940639-1.92463-1.926278-5.269618-4.247905-7.925438-1.581398-2.664225 2.666506-.352989 6.01436 1.57164 7.940638z"/><path d="m352.736629 390.931935 1.437169-1.009403 5.336854 7.629406 2.504539-1.758044.748 1.076697c-1.655685 1.337459-2.252404 2.010394-1.453978 4.062848l-1.050561.740229z"/><path d="m349.887506 397.846347c.882472 1.270166.91609 2.843152-.554697 3.877791-1.66409 1.169225-3.092854.20188-3.756809-.740229-1.016944-1.455223-.899281-3.036622.386607-3.936673 1.57164-1.101932 3.126472-.344879 3.924899.799111zm-2.319641 8.462164c1.672495 2.094511 3.891281 1.530928 5.126742.656112 3.202112-2.245922 1.596854-6.165772-.050427-8.521046-.983326-1.413164-2.084315-2.590801-3.437438-3.154385-1.596854-.656112-3.025618-.193469-3.857663.378526-1.504405 1.059874-1.865798 1.926278-1.983461 2.944093-.176494 1.303813.092449 2.304804.857258 3.398324 1.798562 2.565567 4.429169 1.976748 5.74027 1.051462 1.470787-1.026227 1.706112-2.287981 1.630472-3.103915l.050427.008412c.790022 1.135578 2.336449 4.281552.235326 5.76201-1.15982.815934-2.16836.471055-3.000405-.353291z"/><path d="m338.415371 408.764725c-1.882607-2.691742-2.311236-4.794665-.773214-5.879774 1.546427-1.076696 3.378607.050471 5.261214 2.733801 1.882607 2.691742 2.31964 4.803077.773213 5.879773-1.546427 1.076697-3.387011-.05047-5.261213-2.7338zm-1.437169 1.000992c1.554832 2.229098 4.454382 5.097486 7.538832 2.935681 3.084449-2.153394 1.378337-5.854539-.184899-8.092049-1.563236-2.229099-4.454382-5.097487-7.538832-2.935681-3.076045 2.161805-1.378337 5.86295.184899 8.092049z"/><path d="m321.110517 410.564827 1.588449-.740229 3.933304 8.436929 2.773483-1.295401.554696 1.186049c-1.865797 1.034638-2.571775 1.58981-2.143146 3.760027l-1.168224.538348z"/><path d="m322.581303 424.048772-8.211191 3.82732-.605123-1.303812c.605123-1.783279 1.680899-6.897589.067236-12.609128l1.638876-.765465c1.117798 3.457206.941303 8.722926-.100854 12.440895l6.538697-3.053445z"/><path d="m303.898112 425.646994c-1.386741-2.97774-1.445573-5.139545.26054-5.930244 1.706112-.799111 3.319775.630877 4.706517 3.608616 1.386741 2.97774 1.445573 5.131133-.268944 5.930244-1.689304.799111-3.302967-.639289-4.698113-3.608616zm-1.580045.740229c1.151416 2.464626 3.49627 5.795656 6.916899 4.197435 3.412225-1.58981 2.378472-5.534895 1.227056-7.999521-1.151415-2.473038-3.504674-5.795657-6.916898-4.205846-3.412225 1.598221-2.378472 5.534894-1.227057 8.007932z"/><path d="m250.815326 432.788521 1.748135-.159822.806831 9.269686 3.050832-.260762.109258 1.303812c-2.101124.336468-2.958382.614054-3.294562 2.792682l-1.277483.117764z"/><path d="m242.545303 439.400112c1.100989-.10094 2.681034.084117 2.907955 2.58239.151281 1.749632-.739595 3.02821-2.269213 3.162797-1.874202.168234-2.74827-1.068285-2.882742-2.557155-.226921-2.58239 1.386742-3.120738 2.244-3.188032zm.109259-1.497281c-1.210247.109352-2.454113.773876-2.849124 1.825337l-.042022-.042058c.117663-3.415148.932899-5.004958 2.714651-5.16478 1.336315-.117764 2.185169.639289 2.395281 1.943101l1.638877-.142999c-.109259-1.261754-1.126203-3.423559-4.185438-3.145973-4.496405.39535-4.210652 6.376064-4.092989 7.772405.184899 2.119747.941303 6.014361 5.101528 5.652658 2.74827-.235528 4.017348-2.464626 3.807236-4.845136-.235326-2.590801-2.067506-4.062848-4.488-3.852555z"/><path d="m229.501528 441.065627c-.285753-3.263737.395011-5.31619 2.269214-5.484424 1.874202-.159822 2.907955 1.732809 3.193707 5.004958.285753 3.272149-.395011 5.31619-2.269213 5.476012-1.882607.168234-2.907955-1.732808-3.193708-4.996546zm-1.748135.151411c.235326 2.708565 1.311101 6.645238 5.059506 6.317182 3.748404-.328056 4.126607-4.390904 3.891281-7.09947-.235326-2.716976-1.311101-6.636826-5.059506-6.30877-3.748404.319645-4.126607 4.374081-3.891281 7.091058z"/><path d="m219.886787 443.176963c-.369798 4.256316-3.504675 4.407727-4.91663 4.289963-2.260809-.201881-3.958517-1.825337-3.74-4.256317.201708-2.33845 1.83218-3.188031 3.874472-4.062848l1.411955-.622465c1.874203-.832758 2.353259-1.825337 2.470922-2.313216l-7.093394-.614053.134472-1.547752 8.925573.782288c-.327775 2.708565-1.680899 4.054436-3.513078 4.92084l-1.815371.849581c-1.462382.681348-2.512944 1.127167-2.65582 2.834741-.09245 1.04305.462247 2.422568 2.370067 2.590802 2.470921.218704 2.781888-2.077689 2.924764-2.986152z"/><path d="m202.665978 439.627228c.285752-3.272149 1.311101-5.16478 3.185303-5.004958 1.874202.168234 2.563371 2.212276 2.269213 5.484424-.285752 3.272149-1.311101 5.16478-3.185303 5.004958-1.874202-.168234-2.554966-2.212275-2.269213-5.484424zm-1.748135-.151411c-.235326 2.716977.134472 6.771414 3.891281 7.09947s4.824179-3.608617 5.059505-6.317182c.235326-2.716977-.142876-6.771413-3.891281-7.099469-3.748404-.328056-4.815775 3.600204-5.059505 6.317181z"/><path d="m192.345258 438.718765c.285753-3.272149 1.311102-5.16478 3.185304-4.996546 1.874202.159822 2.563371 2.212276 2.269213 5.476013-.285753 3.272148-1.311101 5.164779-3.185303 5.004957-1.874202-.168234-2.563371-2.203864-2.269214-5.484424zm-1.748134-.142999c-.235326 2.716977.142876 6.771413 3.882876 7.099469 3.748404.328056 4.82418-3.600204 5.059506-6.317181.235325-2.716977-.142877-6.771413-3.891281-7.099469-3.74-.328056-4.815776 3.600204-5.051101 6.317181z"/><path d="m181.957303 438.685118c-1.109393 4.130142-4.219056 3.734792-5.588988 3.364678-2.193573-.588819-3.580315-2.48145-2.949978-4.845136.605124-2.271157 2.361663-2.826329 4.513214-3.33103l1.504404-.370115c1.983461-.49629 2.630607-1.379518 2.832315-1.842161l-6.883281-1.842161.403415-1.497281 8.65663 2.321627c-.790023 2.607625-2.361663 3.692734-4.311506 4.231082l-1.933034.529937c-1.554831.412173-2.672629.672935-3.109663 2.330039-.277348 1.009403.033618 2.464626 1.882607 2.960916 2.395281.639289 3.101259-1.564575 3.395416-2.430979z"/><path d="m168.451281 426.353576 1.689303.454231-2.403685 8.9921 2.949977.7907-.336179 1.261754c-2.084315-.403762-2.983596-.437408-4.042562 1.505693l-1.243865-.336468z"/><path d="m155.600809 429.516373c.848854-3.179621 2.185169-4.861959 4.008944-4.374081s2.134741 2.616037 1.285887 5.787245c-.848853 3.171208-2.185168 4.861959-4.008943 4.374081-1.815371-.479467-2.134742-2.616037-1.285888-5.787245zm-1.689303-.44582c-.705978 2.624448-1.042158 6.695708 2.596988 7.663052 3.639146.975757 5.370472-2.708565 6.07645-5.341425.705977-2.63286 1.042157-6.687296-2.596989-7.671464-3.639146-.967345-5.378876 2.708565-6.076449 5.349837z"/><path d="m143.994202 427.396626c-1.806966 3.869379-4.798966 2.944092-6.084854 2.346862-2.067505-.958933-3.101258-3.070268-2.067505-5.282543.99173-2.128159 2.815505-2.372098 5.025887-2.489861l1.554832-.100941c2.042292-.142999 2.82391-.908463 3.101258-1.329047l-6.454651-3.011387.65555-1.404752 8.127146 3.785262c-1.235461 2.439391-2.966786 3.23009-4.983865 3.423559l-1.991865.185057c-1.605259.134587-2.74827.201881-3.471056 1.758044-.445439.950521-.395012 2.430979 1.344719 3.246914 2.244 1.04305 3.32818-1.000992 3.756809-1.808514z"/><path d="m134.597978 423.014134c-1.806967 3.87779-4.807371 2.944092-6.093259 2.346862-2.059101-.958933-3.092854-3.070268-2.059101-5.290955.99173-2.119747 2.807101-2.372098 5.025888-2.489861l1.546427-.100941c2.042292-.142998 2.82391-.908463 3.109663-1.329047l-6.454652-3.011386.65555-1.404753 8.127146 3.793673c-1.23546 2.43098-2.966786 3.230091-4.983865 3.415148l-2.000269.185057c-1.605259.134587-2.739866.193469-3.471057 1.749632-.445438.950522-.395011 2.43098 1.34472 3.246914 2.252404 1.04305 3.319775-1.000991 3.756809-1.808514z"/><path d="m119.629573 413.786506c1.386742-2.969328 3.000405-4.399316 4.706517-3.608616 1.706112.79911 1.647281 2.944092.260539 5.921832-1.386741 2.977739-2.992 4.407727-4.698112 3.608616-1.714517-.790699-1.66409-2.944093-.268944-5.921832zm-1.596854-.740229c-1.151416 2.464626-2.176764 6.40971 1.227056 7.99952 3.412225 1.58981 5.765483-1.732809 6.916899-4.197435 1.143011-2.473038 2.185169-6.418122-1.235461-8.007932-3.40382-1.58981-5.748674 1.732809-6.908494 4.205847z"/><path d="m110.174517 410.951765c-2.445708 3.499265-5.244405 2.060865-6.404225 1.253343-1.865798-1.303813-2.512944-3.558147-1.117798-5.56013 1.344719-1.917866 3.185304-1.850572 5.387281-1.572986l1.538023.168234c2.042292.218704 2.941573-.403762 3.294562-.765465l-5.83272-4.088083.890877-1.270165 7.345528 5.147956c-1.638876 2.178629-3.479461 2.658095-5.504944 2.498273l-2.00027-.168234c-1.605258-.142999-2.739865-.285997-3.723191 1.127167-.596719.857993-.806831 2.330039.773214 3.431971 2.025483 1.421576 3.445843-.412173 4.017348-1.118755z"/><path d="m99.484 402.304545c-.2185169-.176646-.4538427-.361703-.680764-.521525-1.0421573-.731818-2.3364495-1.017815-3.2777529.319644-.4454382.639289-.8068314 1.968336.798427 3.087091 1.9078202 1.33746 3.1264719-.134587 3.7063819-.832757l1.311101.916874c-1.100989 1.572987-3.1012582 3.061857-5.9251683 1.085109-2.0759101-1.446812-2.4793258-3.507676-1.3363146-5.147957.9581124-1.379517 2.210382-1.480458 2.9247641-1.253342l.0168089-.033647c-.8068314-1.059873-1.0421573-2.321627-.0336179-3.760027 1.2270561-1.758044 3.5466968-2.666506 6.2781568-.74864.798427.555171 1.327911 1.228107 1.655686 1.867396.748 1.463634.210112 2.927269-.563101 4.22267l-1.395146-.975757c.663955-1.04305 1.369932-2.573978-.630337-3.970319-1.369933-.958933-2.9247644-.799111-3.7904274.437408-1.2690786 1.808514.2101124 3.087091 1.1262023 3.72638.2017078.134587.4202251.277586.6219321.412173z"/><path d="m88.5413483 393.312444c1.8742023-2.691742 3.7147865-3.818908 5.2612135-2.7338 1.5380225 1.076697 1.1093933 3.188032-.7732135 5.879774-1.8826067 2.691742-3.7147865 3.818908-5.252809 2.742212-1.5464269-1.085109-1.1177977-3.196444.764809-5.888186zm-1.4371685-1.000991c-1.5548315 2.229099-3.2609438 5.930244-.1764944 8.092049s5.9755955-.706582 7.5388315-2.935681c1.5632359-2.237511 3.2609438-5.930244.1764943-8.092049-3.0844494-2.161805-5.967191.706582-7.5388314 2.935681z"/><path d="m81.2210337 389.695416c-3.0172135 3.019798-5.5217528 1.118755-6.5218876.117764-1.6052585-1.606634-1.8657978-3.936673-.1344719-5.669481 1.6640898-1.657104 3.4542471-1.261754 5.5721797-.622466l1.4875955.437408c1.9666517.563584 2.9667866.117764 3.3786068-.185057l-5.0342922-5.038604 1.0925843-1.101932 6.3369888 6.342417c-1.9918652 1.867396-3.8912809 2.027218-5.8495281 1.505693l-1.9330337-.513113c-1.5548315-.420585-2.6474157-.748641-3.8576629.462643-.7395955.740229-1.2018427 2.153393.1512809 3.507676 1.7565393 1.758044 3.4710561.193469 4.1518202-.403761z"/><path d="m68.6058876 380.106086-.0252134-.033647 4.2022471-4.205847 2.9751911 2.97774zm2.6642248-7.755581-1.0001349 1.000991 1.3531236 1.362694-6.000809 6.014361.9581124.967345 10.1274157-1.631869 1.1262023-1.135578-4.0425618-4.054436 2.2524045-2.254334-1.1598203-1.160814-2.2608089 2.254334z"/><path d="m62.9748764 368.565243c2.3196405-2.321628 4.3199101-3.120739 5.6478202-1.791691 1.3363146 1.337459.5378877 3.339442-1.7817528 5.661069-2.3196404 2.33004-4.3283146 3.112327-5.6562247 1.783279-1.3195056-1.329047-.5294831-3.33103 1.7901573-5.652657zm-1.2354607-1.244931c-1.9246292 1.926278-4.2442696 5.274132-1.5800449 7.940638 2.6642247 2.666507 6.0092135.336468 7.9338427-1.58981 1.9246292-1.926277 4.2442696-5.274131 1.5800449-7.940638-2.6726292-2.658095-6.017618-.336468-7.9338427 1.58981z"/><path d="m53.0491685 360.708721c-3.5046741 2.447803-5.6310112.142999-6.4462472-1.017815-1.3026966-1.858984-1.1430112-4.205847.8572585-5.602188 1.9246292-1.345871 3.6223371-.6477 5.5973932.353291l1.3951461.689759c1.8405843.900051 2.8995506.630877 3.3533933.403762l-4.0845843-5.837716 1.2690786-.891639 5.1435506 7.35182c-2.277618 1.480458-4.1854382 1.312224-6.017618.462643l-1.8237753-.841169c-1.462382-.689759-2.4793258-1.202873-3.8828764-.218704-.8572584.59723-1.5548314 1.909454-.4538427 3.482441 1.4203596 2.035629 3.3786068.799111 4.1602248.319644z"/><path d="m46.6449438 350.194104c-.663955-.218704-1.4539775-.6477-2.1263371-1.615045-1.2186516-1.74122-1.2438651-4.382492.9665169-5.930244 1.1934382-.841169 4.1434157-2.102923 6.4966742 1.253343.9833258 1.404752 1.6808988 3.608616-.5294832 5.543306l-.9749213-1.38793c1.1514157-1.017815 1.0505618-2.338451.2101123-3.541323-.9749213-1.396341-2.6978427-1.480458-4.0425618-.538348-1.5380225 1.076697-1.6388764 2.716977-.7059775 4.054436.5378876.773876 1.4035506 1.228107 2.4120899 1.270166l.7564045 1.202872-6.3201798 3.221678-3.8912809-5.568541 1.3111011-.916874 3.1853034 4.550726z"/><path d="m38.7447191 336.735395c2.6894382-1.892631 4.7989663-2.313216 5.8831461-.773876 1.0757752 1.53934-.050427 3.381501-2.7398652 5.26572s-4.7989663 2.313216-5.8747416.773876c-1.0757753-1.547752.0420225-3.381501 2.7314607-5.26572zm-1.0001348-1.4384c-2.227191 1.556164-5.0931236 4.458198-2.9331686 7.545289 2.1599551 3.07868 5.8579326 1.379518 8.0935281-.176645 2.227191-1.564575 5.0847191-4.458198 2.9247641-7.545289-2.1599551-3.095503-5.8579326-1.38793-8.0851236.176645z"/><path d="m31.8698427 328.904108c-3.8744719 1.808514-5.5721798-.841169-6.1688989-2.119746-.9581123-2.060865-.4034157-4.340434 1.8153708-5.375072 2.1263371-.99258 3.6727641-.008412 5.4461124 1.329047l1.2522696.916875c1.6556854 1.211284 2.7482697 1.127167 3.2357304.984168l-3.008809-6.451769 1.4035505-.656112 3.790427 8.134107c-2.5045393 1.068285-4.3451236.571996-6.0092135-.588818l-1.6472809-1.14399c-1.3195056-.933698-2.2355955-1.615046-3.7904269-.89164-.9413034.44582-1.8573933 1.615045-1.0505618 3.356266 1.0505618 2.254334 3.1937078 1.371106 4.0425618 1.04305z"/><path d="m30.6932135 316.017394c-1.4035506.656112-2.958382.412173-3.723191-1.236519-.8572585-1.842161.3361797-3.07868 1.3783371-3.566558 1.6052584-.74864 3.1432808-.361703 3.8072359 1.059874.815236 1.749632-.2017079 3.145973-1.462382 3.743203zm-7.9170337-3.751615c-2.3532585 1.278577-2.1851686 3.566558-1.546427 4.937664 1.6640899 3.549735 5.7991011 2.649683 8.4044944 1.429988 1.5548315-.723406 2.907955-1.606634 3.689573-2.834741.9328989-1.463634.7227865-2.952504.2941573-3.869379-.7816179-1.673927-1.5632359-2.170217-2.5465618-2.473038-1.2522696-.403761-2.2860224-.311232-3.5046741.260763-2.8323146 1.320636-2.7062472 4.020789-2.0338877 5.476012.7564045 1.623457 1.9582472 2.069277 2.7734832 2.144982l-.016809.042058c-1.2522697.588819-4.6224719 1.556164-5.7066517-.773875-.5967191-1.278578-.0924494-2.220687.8740674-2.893623z"/><path d="m21.9441348 302.811036c2.9667865-1.38793 5.1267416-1.446812 5.9167641.260762.7984269 1.707569-.6303371 3.322619-3.5971236 4.71896-2.975191 1.387929-5.1267416 1.4384-5.9251686-.269174-.7984269-1.715986.6303371-3.331031 3.6055281-4.710548zm-.7395955-1.598222c-2.4625168 1.152402-5.7822921 3.507676-4.2022472 6.922824 1.596854 3.415147 5.5301573 2.380509 7.9926742 1.228107 2.4709213-1.152402 5.7906966-3.507676 4.1938427-6.922824-1.580045-3.406736-5.5217528-2.380509-7.9842697-1.228107z"/><path d="m16.8257978 293.600231c-4.1266068 1.110344-5.336854-1.783279-5.7066517-3.154385-.5883146-2.195452.3613932-4.340433 2.7146517-4.979722 2.2608089-.605642 3.622337.630877 5.135146 2.254334l1.0673708 1.118755c1.4203596 1.472046 2.5129438 1.58981 3.0172135 1.530928l-1.8405843-6.880765 1.496-.403761 2.3196405 8.664044c-2.6474158.614053-4.3787416-.201881-5.8159101-1.631869l-1.4203596-1.413164c-1.1346067-1.135579-1.9162247-1.976748-3.5719101-1.530928-1.0085393.269174-2.1095281 1.270165-1.6136629 3.120738.6387415 2.397333 2.8995505 1.901043 3.7988314 1.715985z"/><path d="m9.91730337 284.860482-2.35325843-8.764984 1.38674158-.370115c1.64728088.916875 6.49667418 2.859976 12.39662918 2.262746l.4706517 1.749632c-3.5971236.504701-8.7490786-.588819-12.22013482-2.262746l1.86579772 6.973294z"/><path d="m11.5813933 266.169699c3.1684943-.849581 5.3032359-.538348 5.7906966 1.295401.4874607 1.816926-1.2018427 3.154385-4.3703371 4.003966-3.17689887.849581-5.30323595.538349-5.79069662-1.278577-.48746067-1.825338 1.2018427-3.162797 4.37033712-4.02079zm-.4538427-1.69075c-2.63060678.706582-6.31177532 2.447803-5.33685397 6.090066.97492135 3.633852 5.02588767 3.297384 7.66489887 2.590802 2.6222023-.706583 6.3033708-2.439392 5.3284494-6.081655-.9665168-3.633851-5.0258876-3.297384-7.6564943-2.599213z"/><path d="m7.51361798 257.354245c-4.26107865.378526-4.95024719-2.691742-5.07631461-4.104907-.20170786-2.271157 1.10098876-4.214258 3.53829214-4.432962 2.33644943-.201881 3.46265168 1.253342 4.66449439 3.112327l.8656629 1.2954c1.1430112 1.699162 2.2019775 2.001983 2.7062472 2.027218l-.6219326-7.099469 1.546427-.134587.781618 8.94163c-2.7146517.142999-4.2778877-.950521-5.4461124-2.607625l-1.15141573-1.64028c-.91608989-1.320636-1.54642697-2.287981-3.25253933-2.13657-1.0421573.092529-2.30283146.874816-2.13474157 2.792682.21851685 2.473038 2.52975281 2.380509 3.4374382 2.355274z"/><path d="m8.48013483 242.490783c-.13447191-1.480458.53788764-2.784271 2.30283147-2.935681 2.0422921-.185058 2.5969888 1.219695 2.6978427 2.405744.2017079 2.262745-1.3195056 2.918858-2.3532584 3.011386-1.21024723.109352-2.48773038-.639289-2.64741577-2.481449zm-3.91649438-3.684322c-1.52121348.134587-3.26094382 1.429988-3.00880899 4.32361.27734832 3.12915 2.57177528 3.768439 3.93330337 3.650675 1.21865169-.109352 2.05910113-.841169 2.38687641-1.993571.68076404 1.329047 1.77334831 2.077688 3.36179776 1.934689.6387416-.058881 2.0506966-.176645 2.992-1.606633.7227865-1.118755.7900225-2.506685.7227865-3.23009-.2689438-3.087092-2.4036854-4.247905-4.504809-4.062848-.98332583.092528-2.39528088.588818-2.99199998 2.422567-.35298877-.555171-1.01694382-1.598221-2.89114607-1.438399zm2.50453933 3.82732c.10085393 1.186049-.56310113 2.346863-1.8069663 2.456215-.83204494.075705-2.07591011-.243939-2.22719101-1.993571-.16808989-1.909455.93289888-2.53192 1.73132584-2.599214 1.18503371-.10094 2.17676405.723406 2.30283147 2.13657z"/><path d="m7.11020225 229.427423c3.26094385-.285998 5.30323595.395349 5.47132585 2.271157s-1.7313259 2.902034-5.00067417 3.188032c-3.26934831.285997-5.31164045-.386938-5.47973033-2.271157-.1596854-1.875808 1.73973033-2.902035 5.00907865-3.188032zm-.1596854-1.749632c-2.71465168.235527-6.63114606 1.312224-6.31177528 5.072251.32777528 3.751615 4.38714607 4.121729 7.09339326 3.886202 2.71465167-.235527 6.63114607-1.312224 6.30337077-5.063839-.3193708-3.760027-4.37033706-4.130142-7.08498875-3.894614z"/><path d="m4.97546067 218.43334c-4.25267415-.370115-4.40395505-3.507676-4.28629213-4.920841.19330337-2.262745 1.82377528-3.961908 4.25267416-3.751615 2.33644943.20188 3.19370786 1.842161 4.05937078 3.87779l.62193259 1.421577c.83204493 1.875807 1.81537083 2.346862 2.31123593 2.464626l.6219326-7.099469 1.546427.134587-.781618 8.94163c-2.6978427-.328056-4.0425618-1.682339-4.91662922-3.5245l-.84885393-1.808514c-.67235955-1.463635-1.12620225-2.515096-2.83231461-2.666507-1.0421573-.092528-2.41208988.462643-2.58017977 2.38051-.21851686 2.464626 2.07591011 2.78427 2.9835955 2.918857z"/><path d="m8.79110112 204.015697c-.09244943 1.101932-.54629213 2.63286-3.05083146 2.414156-1.74813483-.15141-2.84912359-1.261754-2.71465168-2.78427.15968539-1.875808 1.52961798-2.523508 3.01721348-2.397333 2.58017978.218704 2.82391011 1.909455 2.74826966 2.767447zm1.44557308.361703c.1008539-1.211284-.33617982-2.557155-1.30269667-3.12915l.05042696-.033647c3.33658431.706583 4.76534831 1.783279 4.60566291 3.566558-.1092584 1.33746-1.0001348 2.044042-2.3280449 2.018807l-.1428764 1.64028c1.2606741.10094 3.5551011-.513113 3.8240449-3.583381.3950112-4.491845-5.54696628-5.257309-6.94211235-5.375072-2.10952809-.185058-6.08485393-.126176-6.44624719 4.046024-.23532584 2.750624 1.73132584 4.382492 4.10979775 4.584373 2.59698877.235527 4.36193259-1.312224 4.57204499-3.734792z"/><path d="m9.4214382 190.868221c3.2693483.285997 5.1603596 1.312224 5.0006742 3.188031-.1596854 1.875808-2.2019776 2.557155-5.47132588 2.271158-3.26934832-.285998-5.16035955-1.312225-5.00067416-3.188032.15968539-1.875808 2.19357303-2.565567 5.47132584-2.271157zm.1512809-1.749633c-2.70624719-.243939-6.76561798.142999-7.09339326 3.894614-.32777528 3.751616 3.60552809 4.819901 6.31177528 5.06384 2.71465168.235527 6.75721348-.134587 7.08498878-3.886203.3277753-3.760027-3.5887191-4.828312-6.3033708-5.072251z"/><path d="m10.7577528 178.259092c.084045-.260762.1848989-.54676.2521348-.815934.3277753-1.228107.1596854-2.548743-1.428764-2.969328-.7564045-.20188-2.11793259-.084117-2.62220225 1.808514-.5967191 2.245922 1.20184269 2.893623 2.05910112 3.196444l-.41182022 1.547751c-1.84898877-.49629-3.93330337-1.867396-3.04242697-5.198426.65555056-2.447803 2.44570787-3.541323 4.37033708-3.019798 1.63047194.437408 2.14314604 1.581398 2.17676404 2.321627l.033618.016824c.7227865-1.118756 1.8237753-1.774868 3.5130786-1.320636 2.0675057.555172 3.7147866 2.414156 2.8491236 5.644246-.2521348.94211-.697573 1.673927-1.1766292 2.195452-1.1177977 1.211284-2.6810337 1.202872-4.1686292.916875l.4454382-1.648692c1.2018427.269174 2.8827416.412173 3.5130787-1.951513.4286292-1.623457-.2521349-3.02821-1.7145169-3.415148-2.1263371-.571995-2.8239101 1.253343-3.1096629 2.330039-.067236.235528-.1092584.487879-.1764944.723406z"/><path d="m15.4558652 164.901323c3.1684944.849581 4.8577977 2.195452 4.370337 4.003966-.4874606 1.825338-2.6137977 2.144982-5.7822921 1.295401s-4.85779774-2.195452-4.36193257-4.020789c.47065167-1.800103 2.60539327-2.119747 5.77388767-1.278578zm.4454382-1.69075c-2.6306068-.698171-6.68997756-1.04305-7.65649441 2.599213-.97492135 3.642263 2.70624721 5.375072 5.33685391 6.090066 2.6306068.706582 6.6815731 1.034638 7.6564944-2.607625.9749214-3.633851-2.7062472-5.375072-5.3368539-6.081654z"/><path d="m18.1284944 154.882996c3.1684944.849581 4.8577977 2.187041 4.3703371 4.003966-.4874607 1.825338-2.6222023 2.136571-5.7822922 1.295401-3.1684944-.849581-4.8577977-2.195452-4.3703371-4.012378.4874607-1.816925 2.6222023-2.13657 5.7822922-1.286989zm.4538427-1.69075c-2.6306068-.706582-6.6899775-1.04305-7.6564944 2.599213-.97492135 3.642264 2.7062472 5.375072 5.3368539 6.081655 2.6306068.706582 6.6815731 1.034638 7.6564944-2.599214.9749214-3.633851-2.7062472-5.375072-5.3368539-6.081654z"/><path d="m21.9105169 142.627159c.1344719-.243939.2773483-.513113.3950112-.765464.5378876-1.14399.5967191-2.473038-.8908764-3.171208-.7059775-.328056-2.0675056-.454232-2.8995506 1.320636-.9833258 2.111335.6807641 3.053444 1.4707865 3.507676l-.6723595 1.455223c-1.7397303-.807523-3.5551011-2.515097-2.0927191-5.652658 1.0757753-2.296393 3.0172135-3.053445 4.8325843-2.203864 1.5212134.706582 1.8405842 1.926278 1.7397303 2.658095l.033618.016824c.9076854-.975757 2.1011236-1.429988 3.689573-.689759 1.9414382.908463 3.2273258 3.036621 1.8237753 6.056419-.4118202.883228-.9749214 1.522516-1.546427 1.951513-1.3026966.99258-2.8407191.714994-4.2526741.168234l.714382-1.530929c1.1346067.471055 2.7650786.900052 3.7988314-1.312224.7059776-1.522516.2773484-3.019798-1.0925842-3.650675-2.0002697-.933698-3.0004045.740229-3.4794607 1.758044-.1008539.210293-.1933034.462643-.3025618.681347z"/><path d="m34.1054382 134.097702-.7395955 1.58981-8.4297079-3.928261-1.2858876 2.767447-1.1850337-.555171c.764809-1.98516.9497078-2.859976-.7732135-4.247905l.5462921-1.160814z"/><path d="m33.2229663 120.882932c2.975191 1.387929 4.403955 3.002974 3.6055281 4.710548-.798427 1.707574-2.9499775 1.657104-5.9251686.269174-2.975191-1.387929-4.3955505-3.002974-3.605528-4.710548.7984269-1.715985 2.958382-1.657104 5.9251685-.269174zm.748-1.58981c-2.4709214-1.152402-6.4042247-2.18704-8.0010787 1.228107-1.5884494 3.415148 1.7313259 5.770422 4.2022472 6.922824 2.4625169 1.152402 6.4042248 2.178628 7.9926742-1.228108 1.5884494-3.415147-1.7313259-5.770421-4.1938427-6.922823z"/><path d="m40.1818876 106.978403c.1680899-.218704.3613933-.454232.5210787-.681347.7227865-1.04305 1.0169438-2.338451-.3193708-3.280561-.6387416-.454231-1.9666517-.799111-3.0844494.799111-1.3363146 1.909454.1344719 3.12915.8404494 3.709557l-.9160899 1.312224c-1.5716404-1.101932-3.0592359-3.103915-1.0841798-5.930244 1.4539776-2.0861 3.5130787-2.489861 5.1519551-1.345871 1.3699326.967345 1.4707865 2.220687 1.2522697 2.935681l.0336179.016824c1.0589663-.807523 2.3196405-1.034639 3.756809-.033647 1.7565394 1.236519 2.6642247 3.541323.748 6.283535-.5546966.799111-1.2270562 1.337459-1.8573932 1.665515-1.4623821.748641-2.9247641.201881-4.2274607-.571995l.9749213-1.387929c1.0421573.664523 2.5717753 1.371106 3.9753259-.639289.9581123-1.371106.798427-2.927269-.4454382-3.793674-1.8069663-1.261754-3.0844495.210292-3.723191 1.127167-.1428764.201881-.2773483.420585-.4118203.622465z"/><path d="m43.417618 100.694868c-3.4962697-2.4562146-2.0591011-5.2573085-1.2438652-6.4181222 1.3026966-1.8589842 3.5635056-2.5150963 5.5553708-1.1103435 1.9162247 1.3458709 1.8405843 3.1796201 1.5716404 5.3918954l-.1680898 1.5393403c-.2185169 2.035629.4034157 2.944092.7732134 3.288972l4.0845843-5.8461272 1.2774832.9000512-5.1435506 7.35182c-2.1767641-1.64028-2.6642247-3.482441-2.4961348-5.509659l.1680899-2.0019831c.1428764-1.6066335.2773483-2.7422121-1.1262023-3.7179685-.8572584-.6056419-2.3196404-.8075226-3.4206292.7654641-1.4287641 2.0356298.4034157 3.4487943 1.1177977 4.0207894z"/><path d="m55.0998652 87.5389795c2.6894382 1.8758076 3.8156404 3.7095567 2.7398651 5.2573083-1.0757752 1.5477516-3.1937078 1.1187552-5.883146-.7654641s-3.807236-3.7263801-2.7314607-5.26572c1.0757753-1.5477516 3.1853034-1.1103436 5.8747416.7738758zm1.0085393-1.4383996c-2.227191-1.564575-5.9251685-3.263737-8.0851236-.1850573-2.1599551 3.0870915.7059775 5.980714 2.9331685 7.545289 2.2355955 1.5645749 5.9335731 3.263737 8.0851236.1766455 2.1599551-3.0870914-.7059775-5.9723022-2.9331685-7.5368772z"/><path d="m62.5294382 76.9150108c.2017079-.1850573.4286292-.3785262.6303371-.5804069.8908764-.8916395 1.411955-2.1281584.2521348-3.2889721-.5462921-.5551717-1.7901573-1.1271669-3.1768989.2523508-1.6472809 1.6486919-.4118202 3.1039149.1764944 3.7936737l-1.1262022 1.1271669c-1.3615281-1.3542826-2.4793259-3.5833813-.0420225-6.0227724 1.7901573-1.8001024 3.8828764-1.8337492 5.286427-.4205847 1.1850337 1.1860488 1.0673708 2.4393911.731191 3.0955032l.033618.0336467c1.1850337-.6056419 2.4541123-.6224653 3.6979775.6140537 1.5212135 1.5225165 2.0002696 3.9619075-.3529888 6.3171817-.6891685.6897588-1.4371685 1.0935201-2.1179326 1.3122241-1.5716404.4878782-2.9163595-.3028209-4.0593708-1.2954007l1.1934382-1.2028722c.9160899.8327576 2.294427 1.7916907 4.0173484.0672936 1.1850337-1.1860488 1.2942921-2.7422121.2269213-3.8104971-1.5632359-1.5561633-3.0760449-.3280561-3.8660674.4626431-.1680899.1766456-.3445843.3701145-.5126742.5383484z"/><path d="m69.8581573 69.5800142c.2101124-.193469.4370337-.3785262.6387416-.5804069.8992809-.9000512 1.4035505-2.1281584.2437303-3.2889721-.5462921-.5551717-1.7901573-1.1271669-3.1684944.2523508-1.6472809 1.6486919-.4118202 3.0955032.1764944 3.7936737l-1.1346067 1.1355786c-1.3531236-1.3626943-2.4709214-3.591793-.0420225-6.0227724 1.7985618-1.8001024 3.8912809-1.8421609 5.303236-.4289964 1.1850337 1.1860488 1.0673707 2.4393911.7227865 3.0955032l.0252135.0252351c1.1850337-.605642 2.4625168-.6224654 3.6979775.6140536 1.5212135 1.5141048 2.0086741 3.9534958-.3529888 6.3171817-.6891685.6813471-1.4371685 1.0935201-2.1179326 1.3038124-1.5716404.4878783-2.9163595-.3028209-4.0593708-1.2954007l1.1934383-1.2028722c.9160898.824346 2.2944269 1.7916907 4.0257528.0672936 1.1850337-1.1860488 1.2858876-2.7422121.2269213-3.8104971-1.5548315-1.5561633-3.0760449-.3364678-3.8660674.4626431-.1764944.1682339-.3445843.3617028-.5126742.5383484z"/><path d="m80.5991011 60.3523866c2.3196405 2.3216273 3.1096629 4.3236103 1.7817528 5.6610696-1.3279101 1.3290475-3.3365842.5383484-5.6478202-1.783279-2.3196404-2.3216274-3.1096629-4.3236104-1.7817528-5.6610696 1.3279101-1.3290476 3.3281798-.5383484 5.6478202 1.783279zm1.2354607-1.236519c-1.9246292-1.9262777-5.269618-4.2479051-7.9422472-1.5813983-2.6642247 2.6665068-.3361798 6.0143607 1.5884494 7.9406385 1.9246293 1.9262778 5.269618 4.2394935 7.9254382 1.5729867 2.6726293-2.6580951.3613933-6.0059491-1.5716404-7.9322269z"/><path d="m89.8356404 51.7640476c.2353259-.1514104.4958652-.3028209.7227866-.4626431 1.0421573-.7318173 1.7565393-1.8505725.8236404-3.1964435-.4538427-.6392887-1.5632359-1.4215761-3.1768989-.3028209-1.9078202 1.3374592-.9413033 2.9861511-.4706516 3.7768503l-1.3195057.9168746c-1.1009887-1.5729867-1.8153708-3.9619076 1.0085394-5.9386555 2.0843146-1.455223 4.1434157-1.1355786 5.2948314.5047016.9665169 1.3795177.6219326 2.5908015.1764944 3.1796201l.0252135.0336467c1.2774831-.3869379 2.5381573-.1850572 3.5382921 1.2533423 1.2354607 1.7580439 1.2858877 4.2479052-1.445573 6.1657713-.798427.5551717-1.6052584.8327576-2.311236.9252862-1.6304719.2102924-2.8239101-.8075225-3.7736179-1.9767479l1.3867415-.9757564c.7564045.9757564 1.9498427 2.1618052 3.9501124.7654641 1.3783371-.9673448 1.7481348-2.4814496.8908764-3.7095568-1.2606742-1.8085141-2.9667865-.8579927-3.8828764-.218704-.2017079.1345871-.4034157.3028209-.5967191.437408z"/><path d="m98.1644944 42.1410705.0252135-.0168234 3.4122251 4.8703704-3.4542476 2.4225677zm7.1690336 3.9703192-.815236-1.1608137-1.57164 1.1019319-4.8746071-6.9648821-1.1177977.7822875-.1428764 10.2622658.9160899 1.3122242 4.6897083-3.2805604 1.823775 2.6160366 1.344719-.9421096-1.83218-2.6160367z"/><path d="m110.502292 38.5913359c1.882607 2.6917418 2.311236 4.8030769.773214 5.8881853-1.546427 1.0851085-3.378607-.0420585-5.261214-2.7338003-1.882607-2.6917419-2.311236-4.8030769-.773213-5.8797737 1.546427-1.0851084 3.378606.0420585 5.261213 2.7253887zm1.437169-1.0009915c-1.563236-2.2290988-4.454382-5.0974862-7.538832-2.935681-3.084449 2.1618052-1.378337 5.8713619.184899 8.092049 1.563236 2.2290987 4.454382 5.0974861 7.538832 2.935681 3.076044-2.1618052 1.369932-5.8629503-.184899-8.092049z"/><path d="m122.478697 30.2553478c.260539-.1093521.537887-.2102924.798427-.3280561 1.143011-.5383484 2.042292-1.5141048 1.353123-3.0029745-.327775-.7065822-1.294292-1.6823387-3.06764-.8579927-2.109528.9925798-1.437169 2.7758588-1.126203 3.6338515l-1.453977.6729355c-.815236-1.7412206-1.100989-4.2142584 2.017079-5.6694814 2.302831-1.0766967 4.277887-.3953495 5.126741 1.4131645.705978 1.5225165.16809 2.6580951-.386607 3.1627967l.016809.0420585c1.319506-.1682339 2.529753.2523508 3.269349 1.8421608.907685 1.9431012.529483 4.3993157-2.496135 5.8208918-.874067.4037613-1.722921.5383484-2.437303.4962899-1.647281-.0757052-2.630607-1.2785773-3.378607-2.5992132l1.538022-.7149939c.563101 1.0935201 1.538023 2.4730378 3.756809 1.4383995 1.521214-.7149939 2.151551-2.1365701 1.512809-3.5076761-.932899-2.001983-2.773483-1.3626943-3.782022-.8916395-.226922.1009403-.453843.2271157-.67236.328056z"/><path d="m130.496584 26.3186753c.327776-.6224653.890877-1.3122242 1.949843-1.8085141 1.924629-.9000512 4.530022-.4710548 5.673034 1.9767479.621932 1.3206359 1.361528 4.4581975-2.361663 6.1910063-1.554832.7234057-3.840854 1.0346383-5.362068-1.4888697l1.538023-.7234056c.798427 1.3206358 2.117932 1.4468112 3.445843.8243459 1.538022-.7149939 1.924629-2.4057443 1.23546-3.894614-.798427-1.7075737-2.395281-2.0945116-3.866067-1.4047528-.865663.4037613-1.445573 1.1692254-1.66409 2.1618052l-1.319506.5299367-2.07591-6.7882365 6.15209-2.8683875.67236 1.455223-5.034293 2.3468624z"/><path d="m145.112 20.8763097c1.386742 2.9777394 1.445573 5.1311329-.260539 5.9302438-1.706113.7991109-3.311371-.630877-4.698113-3.6086165-1.395146-2.9777394-1.453977-5.1227212.252135-5.9218321 1.706113-.7991108 3.319775.630877 4.706517 3.6002048zm1.588449-.740229c-1.151415-2.4646262-3.504674-5.7956568-6.916898-4.197435-3.412225 1.58981-2.370068 5.5348942-1.218652 7.9995204 1.151416 2.4730378 3.49627 5.7956567 6.908494 4.2058466 3.412225-1.5982217 2.370068-5.5348942 1.227056-8.007932z"/><path d="m160.870427 15.736765c.848854 3.1712084.537888 5.3077785-1.285888 5.7956568-1.81537.4878782-3.16009-1.2028722-4.008943-4.3740806-.848854-3.1712084-.537888-5.2993668 1.285887-5.787245 1.815371-.4962899 3.16009 1.1944604 4.008944 4.3656688zm1.689303-.4542314c-.705977-2.6244483-2.445708-6.31718171-6.076449-5.34142528-3.639146.97575648-3.302966 5.04701598-2.596989 7.67146438.705978 2.63286 2.445708 6.3171817 6.084854 5.3414252 3.622337-.9841681 3.294562-5.0386043 2.588584-7.6714643z"/><path d="m170.871775 13.0450232c.848854 3.1712084.537888 5.3077785-1.285887 5.7956567-1.815371.4878782-3.16009-1.2028722-4.008944-4.3740806-.848854-3.1712083-.529483-5.30777846 1.285887-5.79565667 1.823776-.47946652 3.16009 1.21128384 4.008944 4.37408057zm1.689304-.4542315c-.705978-2.6244483-2.445708-6.31718168-6.07645-5.34142525-3.630741.97575643-3.302966 5.04701605-2.596989 7.67146435.705978 2.63286 2.445708 6.30877 6.084854 5.3414253 3.630742-.9757565 3.294562-5.0301927 2.588585-7.6714644z"/><path d="m180.889933 10.361693c.848854 3.1712084.537887 5.3077785-1.285888 5.7956567-1.815371.4878782-3.151685-1.2028721-4.000539-4.3740805-.848854-3.17120843-.537888-5.29936684 1.277483-5.78724506 1.815371-.49628991 3.16009 1.19446046 4.008944 4.36566886zm1.689303-.45423145c-.705978-2.62444833-2.445708-6.31718171-6.084854-5.34142528s-3.302966 5.04701601-2.596989 7.67146433c.705978 2.63286 2.445708 6.3171817 6.084854 5.3414253 3.639146-.9841681 3.302966-5.0386043 2.596989-7.67146435z"/><path d="m171.602966 20.7248992-.285753.0757052-.99173.2691742 3.630742 13.5596497.65555-.1850573c.159686-.0420584.621933-.1598221.621933-.1598221l-.084045-.2859976zm2.857528 13.4587094c.025214-.0168234.050427-.0168234.075641-.0252351.016809 0 .025213-.0084117.033618-.0084117v.0084117z"/><path d="m273.583101 406.569273 3.622337 13.50918 1.277483-.34488-3.622337-13.509179-.453842.126175zm.773214.109352c-.008405.008412-.016809.016823-.033618.016823-.025214.008412-.050427.016824-.084045.025236v-.008412z"/><path d="m38.6102472 270.283017c-.050427-.210292-.1680899-.664523-.1680899-.664523l-.2941573.084117-13.2454831 3.558146.3445842 1.278577 13.548045-3.633851zm-.2773483.109352c-.0084045-.008411-.0084045-.025235-.016809-.033646-.0084045-.033647-.016809-.05047-.0252135-.075706z"/><path d="m423.275551 166.356546-13.211866 3.549735.184899.656112c.050427.193469.159686.622465.159686.622465l13.506022-3.62544-.344584-1.278577zm-12.758023 4.054436c.008405.033647.016809.05047.025214.075706 0 .008411.008404.025235.008404.042058-.008404 0-.008404 0-.008404 0z"/><path d="m32.6934831 236.560539-13.9346516 1.211284.0252134.302821.0924495 1.026226 13.9430562-1.228107z"/><path d="m416.064494 203.241821.100854 1.009404.294158-.025235 13.590067-1.194461-.117663-1.312224-13.892629 1.219695z"/><path d="m416.156944 236.81289-.075641 1.017815 13.859012 1.211283.117663-1.320636-13.875821-1.211283z"/><path d="m32.7859326 202.989471-.3025618-.025235-13.6152809-1.202873-.0252135.302821-.0840449 1.026227 13.9262472 1.219696z"/><path d="m410.383056 269.887668-.268944.984168.294158.075705 13.178247 3.532911.33618-1.278577-13.455596-3.608616z"/><path d="m38.7531236 169.956751-13.5228315-3.62544-.0840449.285998-.2605393 1.000991 13.5060224 3.617028z"/><path d="m50.3513258 138.471783-12.716-5.938656-.1260674.277586-.4370337.933698 12.716 5.930244z"/><path d="m398.944539 301.43993-.428629.925286 12.657169 5.91342.563101-1.211284-12.665573-5.896597z"/><path d="m67.2107416 109.468264-11.4889438-8.058402-.1764944.243939-.5883146.849581 11.4973483 8.04999z"/><path d="m382.236404 330.535977-.588314.841169 11.446921 8.024756.756405-1.085109-11.446922-8.024755z"/><path d="m88.8186966 83.8041876-9.8920899-9.9005631-.2101123.2102924-.731191.7318173 9.9088988 9.9005631z"/><path d="m360.746112 356.317817-.705977.731817 9.841663 9.858505.941303-.933698-9.858472-9.866916z"/><path d="m335.112404 377.977927-.840449.580407 7.98427 11.414668 1.084179-.765464-7.975865-11.406256z"/><path d="m114.578472 62.3038994-.176494-.2523508-7.841394-11.2043755-.252135.1682338-.840449.5888186 8.009483 11.4483146z"/><path d="m137.489124 33.0564416-.924495.4374081 5.90836 12.6932453 1.210247-.5551718-5.916764-12.6932453z"/><path d="m306.083281 394.801314-.932899.420585 5.899955 12.651187 1.193438-.555172-5.883146-12.642775z"/><path d="m207.053124 14.5843631-1.319506.1177637.025213.2944092 1.193439 13.66059 1.319505-.1345871z"/><path d="m240.570247 412.625692 1.185034 13.601708 1.32791-.117763-1.218652-13.912941-1.319505.134587z"/><path d="m207.002697 412.230343-.033618.302821-1.185034 13.584884 1.319506.117764 1.218651-13.896117z"/><path d="m241.805708 28.6066559.033618-.2944093 1.185034-13.6185315-1.319506-.109352-.025214.2944092-1.193438 13.6269432z"/><path d="m173.989843 406.249629-.075641.302821-3.538292 13.206358 1.277483.34488 3.613933-13.492356z"/><path d="m274.818562 34.5705464.07564-.2859975 3.538292-13.223182-1.277483-.3448794-.07564.2859976-3.538292 13.2147702z"/><path d="m142.523416 394.641492-.126068.269174-5.790696 12.424071 1.210247.563584 5.908359-12.701657z"/><path d="m306.284989 46.187095 5.916764-12.7100687-1.201843-.5635834-.126067.2691741-5.790697 12.4324828z"/><path d="m113.544719 377.759223-.176494.243939-7.858203 11.229611 1.08418.765464 8.034697-11.481961z"/><path d="m335.27209 63.0525401 8.026292-11.4819614-1.092584-.7570524-.16809.2523508-7.849798 11.2296106z"/><path d="m360.914202 84.6790037 9.866877-9.875328-.932899-.9336979-.210113.2102923-9.665168 9.6734474z"/><path d="m87.9026067 356.124348-.2101123.218704-9.6651686 9.665036.9328989.942109 9.8836854-9.900563z"/><path d="m382.404494 110.460844 11.413304-8.007932-.756405-1.09352-.252135.176645-11.152764 7.822875z"/><path d="m66.4207191 330.334096-.2437303.185058-11.1863821 7.839698.7564045 1.085108 11.4217079-8.007932z"/><path d="m399.062202 139.59895 12.648764-5.905009-.563101-1.211284-.268944.134587-12.363011 5.770422z"/><path d="m49.7798202 301.204402-.2773483.134587-12.4050337 5.787245.5546966 1.194461 12.6739776-5.905009z"/><path d="m169.989303 29.2459446-.983325.2775858 1.722921 6.0143608 1.269079-.3617028-1.731326-6.0143608z"/><path d="m277.810562 405.391636-.991731.285998 1.714517 5.972302 1.277483-.361703-1.714516-5.972302z"/><path d="m33.3238202 274.581393.3613933 1.278577 6.0092135-1.724397-.3613933-1.278577-.2857528.084117z"/><path d="m415.123191 164.960205-.294157.084117-5.673034 1.623457.352989 1.278577 5.975595-1.715985z"/><path d="m421.846787 198.943446-6.135281.647701.025213.302821.100854 1.017814 6.15209-.6477z"/><path d="m26.8271461 240.547681.0336179.302821.100854 1.026227 6.1857078-.656112-.1260674-1.320636z"/><path d="m422.569573 233.582799-6.126876-.428996-.025214.302821-.084045 1.026227 6.143686.420584z"/><path d="m26.3396854 205.908328-.0252135.29441-.0756404 1.026226 6.1857078.428996.100854-1.320635z"/><path d="m417.274742 267.818391-5.984-1.488869-.075641.294409-.252135.99258 5.992405 1.497281z"/><path d="m31.8614382 171.706383-.0756404.285998-.2437304.992579 6.034427 1.505694.3193708-1.278578z"/><path d="m43.2327191 138.976484-.1176629.277586-.4202247.933698 5.7234606 2.540332.5294832-1.202873z"/><path d="m406.113573 300.623995-5.656225-2.523508-.193303.44582-.344584.773876 5.656224 2.515096z"/><path d="m388.699461 332.083728.739595-1.09352-5.14355-3.474029-.159686.252351-.563101.857993.24373.168233z"/><path d="m60.1173483 108.728035-.1680899.252351-.5799101.849581 5.1939775 3.499264.7311911-1.110343z"/><path d="m367.747056 357.983332-4.437573-4.281552-.210112.218704-.546292.563584.050427.370114 4.219056 4.088083z"/><path d="m81.9858427 81.8694981-.2101124.2187041-.714382.740229 4.4795955 4.3236104.9244944-.9505214z"/><path d="m111.754562 64.3142941-.09245-.3028209-3.47946-4.7862536-.235326.1766456-.832045.5972302 3.64755 5.0301927z"/><path d="m337.835461 376.009591-.832045.59723 3.622337 4.979723 1.075775-.773876-3.622337-4.979722z"/><path d="m309.108899 393.337679-.924495.454232 2.706248 5.543306 1.193438-.580407-2.706247-5.551718z"/><path d="m140.640809 47.0703228-2.723056-5.5937761-.268944.1261754-.924494.4542314 2.73146 5.5937761z"/><path d="m202.993753 23.0969967.613528 5.8881854 1.32791-.1261754-.655551-6.199418-1.319505.1429988z"/><path d="m243.915236 412.297636.621933 5.854539 1.311101-.134587-.647146-6.148948-1.319506.126175z"/><path d="m210.322472 412.793926-.403416 5.854539 1.319506.092528.428629-6.148947-1.134607-.084117z"/><path d="m238.889348 22.1632988-1.319505-.0925287-.016809.302821-.411821 5.8713619 1.319506.1093521z"/><path d="m271.566022 33.7293771 1.504405-6.0311841-1.285888-.3196444-.07564.2944093-1.428764 5.7283632z"/><path d="m177.233978 407.107621-.067236.29441-1.42036 5.719951 1.277483.311233 1.496-5.997538z"/><path d="m145.574247 396.054656-.126067.269175-2.403686 5.408718 1.210248.538349 2.529752-5.686305z"/><path d="m303.234157 44.7739305 2.529753-5.6947164-1.210247-.5383484-.117663.2775859-2.41209 5.4171305z"/><path d="m116.292989 379.685501-.159686.243939-3.31137 4.904017 1.100988.740229 3.479461-5.164779z"/><path d="m332.515416 61.134674 3.471056-5.156368-1.100989-.740229-.16809.2439391-3.311371 4.9208406z"/><path d="m90.2978876 358.479622-.2101123.218704-4.1013933 4.247905.9581124.925287 4.3031011-4.46661z"/><path d="m358.518921 82.3321413 4.303101-4.4666092-.958112-.9252863-.201708.2187041-4.092989 4.2394934z"/><path d="m380.454652 107.718632 4.992269-3.633852-.781618-1.068285-.235325.176646-4.74854 3.448794z"/><path d="m68.3705618 333.076308-.2437303.185058-4.7653484 3.465617.781618 1.068285 5.0006742-3.633851z"/><path d="m51.3094382 304.434492-.3697978-.067293-5.0426966 2.473038-.2689438.126175.5799101 1.194461 5.5805843-2.725389z"/><path d="m397.532584 136.368859.361394.050471 5.294831-2.573979-.588315-1.19446-.268943.134587-5.278023 2.58239z"/><path d="m168.770652 36.118298-1.823776-5.9807139-.285752.0841169-.974922.3028209 1.823776 5.9891257z"/><path d="m281.029483 404.432703-.974921.311233 1.806966 5.930243 1.269079-.386937-1.823776-5.938656z"/><path d="m408.57609 164.716266 5.933573-1.816926-.386607-1.270166-.285753.092529-5.656224 1.732809z"/><path d="m40.6609438 277.34884-.3866067-1.261754-.2941573.084117-5.6814382 1.74122.3866067 1.270166z"/><path d="m33.3910562 243.239423-6.1773034.757053.033618.302821.1260674 1.017815 6.1773034-.765465z"/><path d="m421.443371 195.503064-6.143686.74864.042023.302821.117663 1.009403 6.143685-.74864z"/><path d="m422.771281 230.125593-6.15209-.319644-.008404.294409-.058832 1.026227 6.15209.319644z"/><path d="m32.3068764 209.69359-6.1941124-.328056-.0168089.302821-.050427 1.026227 6.2025168.319644z"/><path d="m37.0974382 176.475813-6.0596404-1.404753-.067236.29441-.2269214.99258 6.0596405 1.404752z"/><path d="m418.073169 264.445302-6.009214-1.387929-.07564.302821-.218517.99258 6.000809 1.387929z"/><path d="m47.5862472 144.595495-5.7402697-2.439391-.1176629.277586-.4034157.94211 5.7570786 2.447803z"/><path d="m407.483506 297.435964-5.698248-2.422568-.109258.277586-.395011.950521.268944.117764 5.420898 2.304804z"/><path d="m63.4371236 115.028393-5.2444045-3.406735-.1596854.243939-.5631011.866404 5.2444045 3.398324z"/><path d="m385.984809 324.967436-.563101.849581 5.193977 3.381501.722787-1.110344-5.185573-3.373089z"/><path d="m84.1542022 88.6409113-4.5636404-4.2563168-.2017079.218704-.697573.7486407 4.5636404 4.2563168z"/><path d="m365.402202 351.46427-.697573.757052 4.513214 4.205847.899281-.967345-4.504809-4.214258z"/><path d="m340.533303 373.999196-.815236.622466 3.697978 4.92084 1.058966-.807522-3.706382-4.920841z"/><path d="m109.123955 66.2405719-3.731595-4.9628991-.243731.1850573-.815236.6140536 3.74 4.9628991z"/><path d="m312.117708 391.831986-.91609.471055 2.798697 5.501248 1.176629-.605642-2.798697-5.501248z"/><path d="m134.547551 43.1504737-.924495.4626431 2.832315 5.5433059 1.176629-.6056419-2.82391-5.5348942z"/><path d="m247.260225 411.91911.714382 5.854539 1.319505-.168234-.756404-6.140536-1.311101.159822z"/><path d="m199.556315 23.500758.722786 5.8881853 1.319506-.1598221-.764809-6.1910063-1.311101.1682338z"/><path d="m234.098787 22.1717105-.310967 5.896597 1.32791.0672935.319371-6.1910063-1.32791-.0757052z"/><path d="m213.68427 413.01263-.310967 5.86295 1.32791.067294.319371-6.165771-1.319505-.067294z"/><path d="m180.620989 407.940379-.184899.269174-1.32791 5.728363 1.294292.302821 1.386741-6.031184z"/><path d="m268.305079 32.9218545 1.395146-6.0480075-1.294292-.2944092-.067236.2944092-1.32791 5.7535983z"/><path d="m148.650292 397.417351-.126067.269174-2.302832 5.433954 1.218652.529936 2.428899-5.728363z"/><path d="m300.158112 43.4112362 2.428899-5.7283632-1.218651-.5131133-.117663.2775859-2.311236 5.459189z"/><path d="m329.708315 59.2756898 3.395415-5.2236616-1.109393-.7234056-.16809.2523508-3.218921 4.9713108z"/><path d="m119.091685 381.536074-.159685.25235-3.227326 4.971311 1.109393.723406 3.395416-5.223662z"/><path d="m92.7267865 360.792838-.2017078.218704-4.0257529 4.332022.9665169.900051 4.2358652-4.542314z"/><path d="m356.081618 80.0105139 4.235865-4.5423144-.974921-.9084629-.201708.2271157-4.025753 4.3151987z"/><path d="m378.471191 105.010067 4.925034-3.717969-.798427-1.059873-.235326.185057-4.689708 3.532911z"/><path d="m70.3540225 335.793285-.2353259.176646-4.7065168 3.549734.7984269 1.059874 4.9502472-3.734792z"/><path d="m400.776719 129.689975-5.244404 2.666507.613528 1.177637 5.496539-2.801094-.605124-1.177637z"/><path d="m53.2928989 308.44687-.6051236-1.186049-.2689438.134587-5.2612135 2.683331.6051236 1.177637z"/><path d="m165.560135 37.1024661-.084045-.2775858-1.83218-5.652658-.294157.084117-.974922.328056 1.933034 5.9386555z"/><path d="m284.231596 403.431711-.974922.319645 1.90782 5.888185 1.269079-.403761-1.916225-5.905009z"/><path d="m41.6694831 280.553695-.4118202-1.253342-.2857528.084117-5.6394157 1.84216.4034157 1.253343z"/><path d="m412.786742 158.424319-5.614203 1.825338.411821 1.253342 5.89155-1.909454-.403416-1.261754z"/><path d="m27.692809 247.739679.1428764 1.009403 6.1773034-.866404-.1933034-1.303812-6.1688989.857992z"/><path d="m420.972719 192.062681-6.126876.866404.042022.29441.151281 1.009403 6.118472-.857993z"/><path d="m422.897348 226.651564-6.143685-.210292-.008405.302821-.025213 1.026226 6.143685.210293z"/><path d="m25.9362697 213.133973-.033618 1.026226 6.2025168.210293.033618-1.312224-6.1941123-.227116z"/><path d="m30.2141573 178.74697-.2101124 1.009404 6.0764495 1.286989.2689438-1.295401-6.0680449-1.286989z"/><path d="m418.812764 261.063802-6.026022-1.28699-.058832.29441-.210112 1.000991.294157.067294 5.723461 1.219695z"/><path d="m402.953483 292.195479-.386607.942109 5.74027 2.321628.495865-1.236519-5.731865-2.313216z"/><path d="m46.3003596 147.69941-5.7906967-2.346862-.1176629.285997-.3782022.94211 5.7822921 2.346863z"/><path d="m387.766562 322.124284-.537888.866404 5.261214 3.288972.697573-1.127167-5.252809-3.288972z"/><path d="m61.6301573 117.854722-5.3116404-3.322619-.1596854.260763-.5378877.866404 5.3116405 3.322619z"/><path d="m367.663011 348.98282-.680764.765464.218517.201881 4.361933 3.936673.890876-.99258-4.588854-4.138553z"/><path d="m81.8681798 91.1055374-4.6224719-4.1721999-.2017079.2187041-.6891685.7654641 4.6392809 4.1806116z"/><path d="m343.197528 371.955155-.798427.639289.184899.235527 3.588719 4.601196 1.042157-.815934-3.782022-4.853547z"/><path d="m106.442921 68.2762017-.176494-.2439391-3.630742-4.6432547-.235325.1766455-.806832.630877 3.824045 4.8871939z"/><path d="m134.438292 50.1994727.067236-.3785262-2.773483-5.2152499-.260539.1429988-.907686.4794665 2.907955 5.4844241z"/><path d="m315.092899 390.292646-.907686.479467 2.891147 5.433954 1.168224-.622465-2.882741-5.433954z"/><path d="m196.127281 23.9634011.82364 5.8881854 1.311101-.2018807-.865662-6.1657712-1.311102.193469z"/><path d="m250.596809 411.498525.815236 5.837716 1.311101-.193469-.857258-6.132125-1.311101.185057z"/><path d="m230.636135 22.0371234-.201708 5.896597 1.319506.0336468.218516-6.1910063-1.319505-.0420585z"/><path d="m217.046067 413.172452-.210112 5.871362 1.32791.033647.210113-6.165771-1.319506-.033647z"/><path d="m183.772674 408.663785-.067236.285997-1.210247 5.745187 1.285888.277586 1.285887-6.039596z"/><path d="m265.03573 32.1732138 1.285888-6.0564192-1.302697-.2775858-.058831.2859975-1.218652 5.7788334z"/><path d="m297.056854 42.1326588 2.336449-5.7872451-1.23546-.4878782-.109259.2775859-2.210382 5.4844241z"/><path d="m151.743146 398.695928-.109258.285998-2.218787 5.476012 1.235461.49629 2.31964-5.753598z"/><path d="m121.924 383.344588-.159685.260762-3.143281 5.030193 1.126202.69817 3.294562-5.282543z"/><path d="m326.884404 57.4671757 3.302967-5.2909551-1.126202-.6981705-.151281.2523508-3.151686 5.0301926z"/><path d="m353.619101 77.7225333 4.15182-4.6096079-.99173-.8832278-.201708.2271157-3.950112 4.3909039z"/><path d="m95.1977079 363.072407-.2017079.227115-3.9501124 4.399316.9833259.883228 4.1518202-4.626431z"/><path d="m72.3795056 338.476615-.2353258.176646-4.6308764 3.62544.8152359 1.051461 4.8830113-3.818908z"/><path d="m376.445708 102.326736.226921-.185057 4.622472-3.6086163-.815236-1.04305-.235326.1850572-4.630876 3.6170281z"/><path d="m49.3764045 314.326644 5.4629213-2.902034-.613528-1.177637-.2605394.142998-5.2107865 2.767447z"/><path d="m400.053933 127.654345-.621933-1.177637-.260539.15141-5.177169 2.750624.613528 1.169226z"/><path d="m160.063596 32.3582711-.966517.328056 2.025483 5.9134205 1.260674-.4205847-2.033888-5.9134204z"/><path d="m287.416899 402.355015-.974921.328056 2.017078 5.871362 1.25227-.428997-2.008674-5.86295z"/><path d="m42.7452584 283.741727-.4202247-1.261754-.2857528.10094-5.6226067 1.93469.4286292 1.253342z"/><path d="m411.677348 155.143759-5.580584 1.917866.428629 1.253342 5.866337-2.018806-.428629-1.253342z"/><path d="m420.45164 188.639122-6.101662.958933.042022.302821.151281 1.017815 6.118472-.975757z"/><path d="m28.1970787 251.17165.1680898 1.009403 6.1436854-.975756-.1933033-1.312224-6.1604944.975756z"/><path d="m422.989798 223.185946-6.143686-.109352-.008404.311233-.033618 1.017815 6.160494.109352z"/><path d="m25.8438202 216.59959-.016809 1.026227 6.1941124.109352.0252135-1.329047-6.2025169-.109352z"/><path d="m29.5165843 182.145295-.1933034 1.009403 6.0932584 1.186049.2689438-1.303813-6.1100674-1.186049z"/><path d="m419.485124 257.657066-6.034427-1.169226-.058832.29441-.210112 1.000991 6.051236 1.177637z"/><path d="m44.9808539 151.022029-.2017078-.311233-5.5553708-2.13657-.1092584.285998-.3613933.958933 5.8327191 2.23751z"/><path d="m404.172135 289.066329-.285753.740229.201708.311232 5.496539 2.119747.470652-1.244931-5.773888-2.220687z"/><path d="m389.523101 319.255896-.521079.874816 5.303236 3.188032.689169-1.135579-5.320045-3.196443z"/><path d="m59.856809 120.714698-5.3536629-3.221679-.1596854.252351-.5294832.883228 5.3704719 3.221679z"/><path d="m79.6409888 93.6206337-4.6981124-4.0964946-.2017079.2271157-.6723595.7738758 4.7065168 4.088083z"/><path d="m369.890202 346.459312-.672359.782288 4.647685 4.046024.874068-1.000991-4.65609-4.046025z"/><path d="m103.829124 70.3623016-3.9080903-4.8283119-.2353258.1934689-.798427.6392887 3.8996851 4.8199003z"/><path d="m345.81973 369.852232-.798427.639288 3.866068 4.786254 1.033753-.832758-3.866068-4.777842z"/><path d="m318.034472 388.677601-.890876.49629 2.992 5.391896 1.151415-.647701-2.983595-5.383483z"/><path d="m131.589169 51.7472243-.042023-.3196444-2.865933-5.1731914-.268943.1429988-.890877.4962899 3.008809 5.4339539z"/><path d="m192.706652 24.4933378.924494 5.8461269 1.311101-.193469-.974921-6.1573595-1.311101.2018807z"/><path d="m253.916584 411.002235.924495 5.829304 1.311101-.210292-.966517-6.10689-1.311101.185057z"/><path d="m220.399461 413.273393-.100854 5.86295 1.32791.025235.109258-6.15736-1.32791-.033646z"/><path d="m227.181888 21.9530064-.109259 5.8881854 1.336315.0336467v-.3028209l.100854-5.8965971-1.32791-.025235z"/><path d="m261.741169 31.5002784 1.185033-6.090066-1.302696-.2523508-.058832.2944093-1.117798 5.787245z"/><path d="m187.058831 409.33672-.050427.294409-1.117797 5.770422 1.294292.252351 1.176629-6.056419z"/><path d="m293.938787 40.8877281 2.227191-5.8208917-1.227057-.4794666-.109258.2859976-2.126337 5.5348942z"/><path d="m154.861213 399.940859-.100853.277586-2.126338 5.526482 1.243866.479467 2.227191-5.81248z"/><path d="m324.035281 55.6923084 3.202112-5.3330135-1.134606-.6897589-.159686.2607625-3.050831 5.0890745z"/><path d="m124.781528 385.119455-.159685.252351-3.050832 5.089074 1.134607.681347 3.210517-5.349837z"/><path d="m351.114562 75.4934346 4.059371-4.6853132-1.000135-.8664044-.193304.2271157-3.874472 4.4581975z"/><path d="m97.7022472 365.318329-.1933034.218704-3.8744719 4.466609 1.0001348.874816 4.0677753-4.693725z"/><path d="m74.4806292 341.101064-.2353258.185057-4.5804495 3.717968.832045 1.026227 4.8073708-3.894614z"/><path d="m374.344584 99.702288 4.798967-3.894614-.832045-1.0262266-.226922.1850573-4.56364 3.7011451z"/><path d="m397.507371 123.591497-5.126742 2.843152.630337 1.160814 5.395686-2.994563-.638742-1.169225z"/><path d="m56.4613933 314.368702-.6387416-1.160813-.2689438.142998-5.1519551 2.859976.6387416 1.169225z"/><path d="m156.794247 33.5106731-.966517.3448794 2.143146 5.8797737 1.243866-.4542315-2.134742-5.8797736z"/><path d="m290.568584 401.227848-.958112.353291 2.126337 5.829303 1.235461-.454231-2.117933-5.829304z"/><path d="m43.8798652 286.896112-.4538427-1.236519-.2857528.092529-5.5721798 2.035629.4538427 1.244931z"/><path d="m410.509124 151.880022-5.546967 2.018806.453843 1.244931 5.824315-2.119747-.445439-1.24493z"/><path d="m28.7601798 254.586798.1848989 1.009403 6.1436853-1.085109-.2269213-1.303812-6.1520899 1.085108z"/><path d="m419.87173 185.215563-6.110067 1.068285.058831.302821.16809 1.009403 6.110068-1.076697z"/><path d="m25.8017978 220.065208v1.026227h6.2109213v-1.320636l-6.2109213-.008412z"/><path d="m423.006607 219.711917-6.160495.008412v.302821l-.008404.815934.310966.201881h5.857933z"/><path d="m35.0551461 186.34273-6.1184719-1.076697-.0588315.294409-.1764944 1.009403 6.1184719 1.076697z"/><path d="m413.988584 253.468042-.176494 1.009404 6.068045 1.076696.226921-1.303812-6.068045-1.076697z"/><path d="m405.348764 285.903532-.344584.967345 5.807505 2.111335.445439-1.244931-5.807506-2.119747z"/><path d="m43.8630562 153.966122-5.8579326-2.13657-.1092584.277586-.3529888.967344 5.8747416 2.13657z"/><path d="m58.1422921 123.599909-5.4124943-3.12915-.1512809.260762-.5126742.89164 5.4208989 3.120738z"/><path d="m391.111551 316.564154-.395012.681347 5.362068 3.095504.663955-1.152402-5.362068-3.095504z"/><path d="m77.4642247 96.1693768-4.7821573-4.0123777-.1933034.2271157-.663955.7822875 4.7821573 4.0207894z"/><path d="m372.058562 343.902158-.663955.782287 4.73173 3.970319.857259-1.009403-4.731731-3.978731z"/><path d="m348.39991 367.698838-.781618.664524 3.958517 4.71896 1.016944-.849581-3.958517-4.727372z"/><path d="m101.122876 72.5829887-.084045-.3196444-3.8072355-4.5339027-.2269213.193469-.7900225.6645237 4.0005393 4.7610185z"/><path d="m320.959236 387.020498-.882472.504701 3.076045 5.333014 1.151416-.656112-3.08445-5.333014z"/><path d="m128.597169 53.4295629.016809-.3617028-2.958382-5.1227212-.252135.1514104-.899281.5131133 3.118067 5.3834838z"/><path d="m257.244764 410.447064 1.016944 5.820891 1.311101-.227115-1.075775-6.115301-1.311101.235527z"/><path d="m189.294427 25.0737447 1.033753 5.8545385 1.302696-.2271157-1.084179-6.1573595-1.302697.2271157z"/><path d="m225.038742 21.6333621h-1.327911v.3028209 5.9050088h1.327911z"/><path d="m223.769663 413.298628v5.879773h1.32791l-.008404-6.174183h-1.327911z"/><path d="m258.446607 30.8778131 1.075775-6.1068894-1.311101-.2355274-.050427.3028209-1.025348 5.8124801z"/><path d="m190.370202 409.959185-.058831.302821-1.025349 5.787245 1.311102.227116 1.06737-6.090066z"/><path d="m158.004494 401.135319-.109258.285998-2.008674 5.551717 1.243865.454232 2.117933-5.846127z"/><path d="m290.80391 39.684856 2.126337-5.8377152-1.252269-.4542314-.09245.2775859-2.033888 5.568541z"/><path d="m127.66427 386.83544-.151281.260763-2.958382 5.131133 1.143011.664524 3.118067-5.400307z"/><path d="m321.144135 53.976323 3.109663-5.3918954-1.143011-.6645238-.151281.2607625-2.958382 5.1311329z"/><path d="m348.559596 73.3063943 3.98373-4.7610184-1.008539-.8495811-.193304.2271158-3.798831 4.5339027z"/><path d="m100.257213 367.488546-.193303.235527-3.8072358 4.542315 1.0169438.849581 4.000539-4.761019z"/><path d="m372.066966 96.9264292.378203-.0168234 4.504809-3.785262-.848854-1.0094032-.235326.193469-4.496405 3.7768503z"/><path d="m76.6321798 343.733924-.2605394.159822-4.5132134 3.793674.8572584 1.017815 4.7401348-3.987143z"/><path d="m58.1254831 317.28756-.663955-1.152402-.2605393.15141-5.1099326 2.944093.663955 1.160814z"/><path d="m395.792854 120.580111-5.084719 2.927269.663955 1.152402 5.336854-3.087091-.655551-1.143991z"/><path d="m153.827461 34.6126049-.277349.109352-.958112.3701145 2.235596 5.8293035 1.227056-.4962899-.100854-.2775859z"/><path d="m293.72027 400.058622-.949708.370115.100854.285997 2.109528 5.484425 1.23546-.471055-2.210382-5.778834z"/><path d="m409.290472 148.633108-5.513348 2.119747.495865 1.236519.277348-.109352 5.496539-2.111335-.479056-1.236519z"/><path d="m45.0648989 290.050497-.4874607-1.236519-.2773483.109352-5.5301573 2.119747.4790562 1.236519z"/><path d="m29.3905169 258.001945.1933033 1.009403 6.1352809-1.19446-.2605393-1.303813-6.1268764 1.194461z"/><path d="m419.224584 181.800415-6.093258 1.186049.067236.302821.193303 1.000991 6.084854-1.186048z"/><path d="m25.8270112 223.539238.016809 1.026226 6.2193259-.109352-.033618-1.329047-6.2025169.109352z"/><path d="m422.95618 216.246299-6.160495.109352.016809.302821.016809 1.034639 6.160495-.117764z"/><path d="m34.475236 189.656937-6.1268764-.975757-.0420225.29441-.1596854 1.017814 6.1352809.967345z"/><path d="m414.543281 250.153835-.159685 1.009403 6.076449.967345.201708-1.303812-6.07645-.967345z"/><path d="m42.7284494 157.120507-5.8915505-2.027218-.100854.277586-.3361797.967344 5.8915505 2.03563z"/><path d="m406.474966 282.740735-.336179.967345 5.832719 2.010395.437033-1.253343-5.832719-2.010394z"/><path d="m392.86809 313.426593-.495865.900051 5.420899 3.002974.647146-1.160813-5.412495-3.002975z"/><path d="m56.4950112 126.518766-5.4797303-3.028209-.1428764.260762-.5042697.89164 5.4797304 3.036621z"/><path d="m374.176494 341.302944-.638741.799111 4.807371 3.886203.832045-1.026227-4.807371-3.903026z"/><path d="m75.3210787 98.7601784-4.8577978-3.9366725-.1848989.2355274-.647146.7906992 4.8577977 3.9366725z"/><path d="m350.946472 365.511798-.764809.681347 4.034157 4.643255 1.000135-.866405-4.042562-4.660078z"/><path d="m98.668764 74.6690886-4.0761797-4.6937249-.2269214.193469-.7732135.6729355 4.0761798 4.6937248z"/><path d="m122.663596 49.7031828-.252135.1514105-.882472.5299366 3.193708 5.3246019 1.126202-.6897588-.151281-.2607625z"/><path d="m323.858787 385.304512-.874068.538349.151281.260762 3.008809 5.004958 1.134607-.672936-3.168495-5.282543z"/><path d="m185.890607 25.7130333 1.143011 5.8461269 1.294292-.2607625-1.193438-6.1321244-1.294292.2607625z"/><path d="m260.54773 409.849833 1.126203 5.795657 1.302696-.252351-1.185033-6.098477-1.302697.269174z"/><path d="m227.131461 413.281804.100854 5.879774 1.32791-.025235-.109259-6.174183-1.32791.025235z"/><path d="m220.256584 21.9782415.100854 5.9050087 1.32791-.025235-.109258-6.199418-1.32791.025235z"/><path d="m255.126831 30.2974062.974922-6.115301-1.311101-.2018807-.042023.2944093-.924494 5.8293035z"/><path d="m193.673169 410.539592-.050427.29441-.91609 5.795656 1.311101.210293.958112-6.10689z"/><path d="m161.164584 402.270898-.100854.285997-1.916224 5.576953 1.252269.437408 2.008674-5.86295z"/><path d="m287.64382 38.5492774 2.017079-5.8797737-1.25227-.4289963-.092449.2859976-1.924629 5.593776z"/><path d="m318.227775 52.3276311 3.017214-5.459189-1.15982-.6392887-.142877.2607625-2.874337 5.1816031z"/><path d="m130.580629 388.492544-.142876.260763-2.874337 5.198426 1.15982.630877 3.017213-5.442366z"/><path d="m102.845798 369.641939-.193304.235528-3.7231906 4.601196 1.0337528.832758 3.9080898-4.836724z"/><path d="m345.971011 71.1698242 3.90809-4.8367237-1.025348-.8411693-.193304.2355274-3.714786 4.609608z"/><path d="m74.9764944 351.329683 4.6728989-4.062848-.882472-1.000992-.2185168.193469-4.4459775 3.869379z"/><path d="m374.705978 90.4830721-.865663-1.0009915-.226922.193469-4.437573 3.8609672.874068 1.0009915z"/><path d="m59.8315955 320.172771-.6891685-1.118756-.2521349.151411-5.0426966 3.02821.6807641 1.135578z"/><path d="m394.019506 117.602371-5.017484 3.019798.689169 1.127167 5.269618-3.171208-.680764-1.135579z"/><path d="m150.322787 35.9837109-.949708.3869379 2.328045 5.7788334 1.23546-.4878783-2.336449-5.787245z"/><path d="m296.846742 398.822103-.958113.378527 2.319641 5.736775 1.23546-.487879-2.31964-5.745186z"/><path d="m46.2919551 293.179647-.4874607-1.244931-.2773483.117764-5.4965394 2.229099.4958652 1.228107z"/><path d="m408.004584 145.419841-5.454517 2.203864.487461 1.236519 5.748674-2.321627-.504269-1.228108z"/><path d="m418.518607 178.410503-6.051236 1.286989.058831.294409.210113 1.000992 6.05964-1.28699z"/><path d="m30.0796854 261.400269.2101124 1.009403 6.0932584-1.303812-.2605393-1.295401-6.1100675 1.295401z"/><path d="m25.9110562 227.004855.033618 1.026227 6.2109213-.218704-.0588315-1.320636-6.1941123.210292z"/><path d="m422.855326 212.789093-6.15209.210293.016809.302821.042022 1.017815 6.143686-.210293z"/><path d="m33.9709663 192.971144-6.1436854-.857993-.0420225.294409-.1428764 1.017815 6.1352809.857993z"/><path d="m415.047551 246.831216-.159686 1.017815 6.093259.857993.184898-1.320636-6.076449-.849581z"/><path d="m41.6526742 160.308539-5.9335731-1.926278-.0924494.285997-.3109663.967345 5.9251685 1.926278z"/><path d="m407.525528 279.552704-.319371.975756 5.883146 1.909454.403416-1.261754-5.866337-1.909454z"/><path d="m54.8813483 129.471271-5.5301573-2.944093-.1428764.269174-.4790562.900052 5.5301573 2.944092z"/><path d="m394.464944 310.465677-.479056.908462 5.471325 2.910446.621933-1.169225-5.471326-2.918858z"/><path d="m376.269213 338.661673-.621932.807522 4.857798 3.810497.82364-1.04305-4.883011-3.810497z"/><path d="m73.2199551 101.376215-4.9166293-3.8441438-.1848988.2355274-.6303371.8075225 4.9166292 3.8441439z"/><path d="m96.1474157 76.8897757-4.1602247-4.6264314-.2185168.2102924-.764809.6813471 4.1518202 4.6180197z"/><path d="m353.459416 363.291111-.756405.681347 4.118202 4.575961.983326-.891639-4.109797-4.56755z"/><path d="m326.716315 383.546468-.874068.54676 3.260944 5.21525 1.126202-.69817-3.252539-5.21525z"/><path d="m119.453079 51.6631073-.874068.5467601 3.286158 5.2573083 1.126202-.6981705-3.286158-5.26572z"/><path d="m263.842292 409.18531 1.227056 5.778833 1.302697-.277586-1.285888-6.064831-1.302696.277586z"/><path d="m182.503596 26.4196156 1.23546 5.8124801 1.302697-.2775859-1.302697-6.1068894-1.294292.2775859z"/><path d="m216.793933 22.0791818.210112 5.9050088 1.319506-.0588819-.218517-6.1910063-1.319506.0504702z"/><path d="m230.493258 413.214511.201708 5.86295 1.32791-.042058-.218516-6.174183-1.319506.05047z"/><path d="m251.815461 29.7927046.857258-6.1321244-1.311101-.1766456-.042022.2859976-.815236 5.8293035z"/><path d="m196.992944 411.044294-.042023.294409-.815236 5.81248 1.311102.185058.848853-6.098478z"/><path d="m164.341483 403.339183-.092449.294409-1.815371 5.619011 1.25227.412173 1.916224-5.896597z"/><path d="m284.458517 37.4809923 1.924629-5.9218321-1.260674-.4037613-.09245.2859976-1.823775 5.6190112z"/><path d="m315.277798 50.712586 2.924764-5.5096592-1.168225-.6224653-.142876.2607625-2.781888 5.2488967z"/><path d="m133.522202 390.107589-.134472.269174-2.781887 5.232074 1.168224.622465 2.924764-5.501248z"/><path d="m345.945798 63.5824768-3.647551 4.6684898 1.058966.8075226 3.815641-4.8956056-1.042157-.8159342z"/><path d="m106.510157 372.560797-1.050561-.815934-.184899.243939-3.639146 4.660078 1.050561.824346z"/><path d="m81.8681798 349.77352-.8740674-.99258-.2269214.210292-4.3787416 3.945084.8908764.984168z"/><path d="m371.310562 87.0931597-4.361933 3.9282608.882472.9925798 4.588854-4.1301414-.882472-.9925798z"/><path d="m392.204135 114.649867-4.967056 3.112327.697573 1.127167 5.227595-3.272149-.705977-1.127167z"/><path d="m61.5965393 323.041158-.7059775-1.135578-.2521348.159822-4.9922697 3.12915.7059775 1.127167z"/><path d="m299.939596 397.526703-.941304.403761 2.420495 5.694716 1.218651-.521525-2.41209-5.694716z"/><path d="m147.11227 37.3043468-.941304.4037613 2.437304 5.7367748 1.218651-.5131133-2.437303-5.7367748z"/><path d="m47.5946517 296.27515-.4706517-1.110344h-.3277753l-5.1771685 2.203864-.2773483.117764.5210786 1.219695z"/><path d="m406.676674 142.223398-5.429303 2.304804.512674 1.219695 5.706652-2.422567-.521079-1.219696z"/><path d="m30.8192809 264.790182.2353258 1.000991 6.084854-1.404753-.2941573-1.303812-6.0932585 1.413164z"/><path d="m417.762202 175.02059-6.051236 1.404753.067236.285998.226922 1.009403 6.051236-1.404753z"/><path d="m416.551955 209.945941.058832 1.026227 6.160494-.328056-.075641-1.329048-6.152089.328056z"/><path d="m32.2564494 229.839596-6.2109213.328056.016809.302821.0504269 1.026226 6.2025169-.328056z"/><path d="m415.467775 243.500186-.134472 1.009403 6.110068.748641.159685-1.312224-6.101663-.748641z"/><path d="m33.5255281 196.310586-6.1604944-.757052-.0420225.294409-.1176629 1.017815 6.1604944.757052z"/><path d="m408.534067 276.339437-.302561.984168 5.908359 1.808514.386607-1.270166-5.90836-1.808514z"/><path d="m40.6273258 163.504982-5.950382-1.825337-.1008539.285997-.2941573.984168 5.967191 1.825338z"/><path d="m396.011371 307.479525-.462247.916875 5.521752 2.817917.59672-1.186048-5.521753-2.817918z"/><path d="m53.3097079 132.440599-5.5721798-2.843153-.1344719.269174-.4622472.916875 5.5805843 2.843152z"/><path d="m71.1692584 104.03431-4.9838651-3.760027-.1848989.243939-.6135281.815935 4.9754607 3.760026z"/><path d="m378.311506 335.995166-.630337.815934.24373.176646 4.706517 3.549734.790022-1.059873-4.925034-3.717969z"/><path d="m93.6764944 79.1525212-4.2526742-4.5507261-.2185168.2102923-.748.6897589 4.2358651 4.5591378z"/><path d="m355.930337 361.00313-.756404.689759 4.210651 4.517079.966517-.900051-4.202247-4.508667z"/><path d="m329.540225 381.737954-.857259.555172 3.353394 5.16478 1.109393-.723406-3.353393-5.16478z"/><path d="m116.51991 53.5136799-.857258.5635834 3.378606 5.2068382 1.117798-.7234056-3.387011-5.2068382z"/><path d="m267.128449 408.461904 1.336315 5.76201 1.285888-.294409-1.395146-6.056419-1.294293.294409z"/><path d="m179.124989 27.176668 1.336314 5.7956567 1.269079-.2775859-.033618-.3028209-1.344719-5.8040684-1.294292.2944092z"/><path d="m233.855056 413.0631.302562 5.879774 1.32791-.075705-.327775-6.165771-1.319506.067293z"/><path d="m214.642382 21.8688895-1.319506.0757052.016809.302821.302562 5.896597 1.32791-.0588818z"/><path d="m200.312719 411.490114-.025213.294409-.714382 5.829303 1.311101.168234.748-6.132124z"/><path d="m248.487281 29.3468849.748-6.1489479-1.311101-.1598221-.033618.2944092-.722787 5.8461269z"/><path d="m167.552 404.373821-.100854.285998-1.722921 5.644246 1.269078.386938 1.806967-5.930244z"/><path d="m281.264809 36.4547658 1.815371-5.9470672-1.269079-.3869379-.092449.2859975-1.722922 5.6610697z"/><path d="m137.682427 392.269394-1.176629-.588818-.142877.260762-2.681033 5.282544 1.176629.605642z"/><path d="m313.815416 43.2598257-2.689438 5.2825434 1.185033.5972302.134472-.2691742 2.689438-5.2825434-1.185033-.5972302z"/><path d="m344.424584 62.0431369-1.050562-.7991108-.176494.2439391-3.555101 4.7189599 1.050562.8075226z"/><path d="m105.434382 379.567737 3.74-4.962899-1.058966-.815934-.176495.252351-3.563505 4.727372z"/><path d="m368.965708 84.5528283-4.303101 4.0123777.899281.9757565 4.521618-4.2310818-.899281-.9673447z"/><path d="m84.1626067 352.238146-.8992809-.975757-.2185168.210293-4.3199101 4.029201.9076854.975756z"/><path d="m390.338337 111.739421-4.925034 3.196444.722787 1.110343 5.177168-3.356265-.722786-1.118756z"/><path d="m63.4119101 325.867487-.7227865-1.118755-.2521348.168234-4.9334382 3.213267.7227865 1.110343z"/><path d="m303.024045 396.189243-.932899.420585 2.512944 5.635835 1.210247-.529937-2.512944-5.652658z"/><path d="m143.935371 38.6838645-.932899.4205847 2.529753 5.6947164 1.201842-.5467601-2.529752-5.6863047z"/><path d="m405.281528 139.05219-5.378876 2.397332.546292 1.202872 5.64782-2.506684-.537888-1.219696z"/><path d="m48.9393708 299.35383-.5462921-1.211284-.2773484.126175-5.4040899 2.397333.5462922 1.219695z"/><path d="m416.938562 171.655913-6.026023 1.497281.075641.302821.24373.984168 6.026023-1.497281z"/><path d="m31.6261124 268.171682.2437303.984169 6.0680449-1.514105-.3277752-1.278578-6.0596405 1.514105z"/><path d="m32.4497528 233.195861-6.2025168.437409.0168089.30282.0756405 1.017815 6.2025168-.428996z"/><path d="m416.333438 206.589675.075641 1.017815 6.15209-.428996-.084045-1.329048-6.160495.437408z"/><path d="m415.837573 240.152332-.100854 1.017815 6.110068.6477.142876-1.320636-6.126876-.639288z"/><path d="m33.1305169 199.641617-6.1688989-.647701-.033618.302821-.1092584 1.017815 6.1773033.647701z"/><path d="m39.6524045 166.726661-.2857528-.084117-5.6898427-1.640281-.084045.29441-.2857528.984168 5.9924045 1.715985z"/><path d="m409.49218 273.117758-.277349.984168 5.916765 1.707574.369797-1.278577-5.933573-1.707574z"/><path d="m51.8053034 135.443573-5.6226068-2.742212-.1344719.269174-.4454382.925286 5.6142023 2.733801z"/><path d="m397.515775 304.476551-.453842.916874 5.563775 2.716977.57991-1.186048-5.555371-2.716977z"/><path d="m380.294966 333.286601-.605123.824346 5.009078 3.642263.773214-1.068285-5.000674-3.642263z"/><path d="m69.1689888 106.734464-5.0595057-3.67591-.1764943.235527-.5967191.841169 5.0511011 3.67591z"/><path d="m358.359236 358.681503-.731191.714994 4.277888 4.432962.949707-.916874-4.286292-4.449786z"/><path d="m91.2307865 81.4657369-4.3283146-4.4834326-.2101123.2102923-.748.714994 4.3283146 4.4750208z"/><path d="m332.18764 379.97991-.689168.471055.16809.252351 3.260944 4.845135 1.100988-.740229-3.437438-5.105897z"/><path d="m113.628764 55.4315459-.848854.5719952 3.471056 5.1479563 1.092585-.7486407-3.471057-5.1395446z"/><path d="m270.406202 407.688028 1.428764 5.736775 1.285888-.319644-1.504405-6.039596-1.277483.328056z"/><path d="m175.763191 28.0010139 1.445573 5.7788334 1.285888-.3280561-1.512809-6.0648309-1.285888.3196444z"/><path d="m211.625169 28.2785998-.437034-6.199418-1.32791.0925287.025213.2944092.41182 5.9050087z"/><path d="m237.19164 412.56681.025214.302821.41182 5.871362 1.319506-.10094-.428629-6.165771z"/><path d="m244.453124 22.9539979-.621933 5.8629503 1.311101.1345871.655551-6.1573595-1.319506-.1429988z"/><path d="m204.977213 412.02005-1.319505-.134587-.033618.29441-.613528 5.846126 1.319505.134587z"/><path d="m170.678472 405.635575-1.630472 5.66107 1.277483.370114 1.706113-5.96389-1.277484-.353291z"/><path d="m279.760404 29.506707-1.277483-.3532911-.07564.2859976-1.630472 5.6863047 1.269079.3532911z"/><path d="m312.033663 42.0317184-1.185034-.5804068-.134472.2691742-2.596988 5.3246019 1.193438.5888185z"/><path d="m139.37173 393.455443-2.596988 5.324602 1.193438.580407 2.714651-5.585365-1.185033-.588818z"/><path d="m340.398831 59.435512-3.47946 4.7946652 1.075775.7822875 3.655955-5.0386043-1.067371-.7822875z"/><path d="m111.889034 376.581586-1.075776-.782287-.176494.243939-3.479461 4.794665 1.067371.782288z"/><path d="m366.570427 82.0461437-4.235865 4.088083.764809.7991108.369798-.0504701 4.244269-4.0964947-.924494-.9505213z"/><path d="m86.4822472 354.669125-.9244944-.958933-.2101124.210292-4.2442696 4.104907.9160899.958933z"/><path d="m388.413708 108.85421-4.857798 3.288972.748 1.085109 5.109933-3.440383-.748-1.09352z"/><path d="m65.2777079 328.668581-.748-1.101932-.2437304.168234-4.8830112 3.297384.7395955 1.09352z"/><path d="m288.097663 424.63759 1.806966-.487878 2.571775 9.606154 3.151686-.849581.361393 1.345871c-2.15155.740229-3.000404 1.19446-2.941573 3.549734l-1.32791.353292z"/><path d="m280.684899 433.436222c-1.538023.412173-3.025618-.050471-3.513079-1.875808-.571505-2.119747.790023-2.960916 2.025483-3.297384 2.33645-.630877 3.311371.84117 3.597124 1.926278.344584 1.244931-.201708 2.742212-2.109528 3.246914zm-3.143281 4.803077c.420225 1.581398 2.109528 3.171208 5.101528 2.363685 3.23573-.866404 3.479461-3.406735 3.101258-4.803077-.344584-1.270165-1.260674-2.018806-2.529752-2.144981 1.269078-.958933 1.848988-2.245922 1.40355-3.903026-.176494-.656112-.563101-2.119747-2.244-2.843152-1.302696-.555172-2.773483-.370115-3.521483-.168234-3.185303.857992-4.017348 3.322619-3.429034 5.501247.277349 1.026227 1.058967 2.414156 3.092854 2.700154-.521078.454231-1.496 1.354282-.974921 3.297384zm3.555101-3.347854c1.235461-.328056 2.58018.159822 2.924764 1.446811.235326.866404.117663 2.229099-1.680899 2.716977-1.98346.529936-2.840719-.513114-3.059236-1.345871-.336179-1.219696.352989-2.422568 1.815371-2.817917z"/><path d="m267.212494 437.305601c-.907685-3.389913-.571505-5.669482 1.369933-6.191007s3.370202 1.278578 4.277888 4.66849c.907685 3.389912.571505 5.66107-1.369933 6.182595s-3.370202-1.278578-4.277888-4.660078zm-1.806966.479466c.748 2.809506 2.613798 6.737766 6.496674 5.694716 3.882877-1.04305 3.521483-5.375072 2.773483-8.184577-.756404-2.809506-2.605393-6.746178-6.488269-5.703128-3.891281 1.051461-3.529888 5.383483-2.781888 8.192989z"/></g><g stroke="#fff"><circle cx="224.200543" cy="294.943555" r="15" stroke-width="3.0045"/><path d="m25.600543 294.943555h397.2" stroke-width="2.003"/><path d="m224.800543 493.543555v-493.20000005l21.6 33.96133935-21.6 50.3831303" stroke-width="2.003"/></g></g></g></svg>